<?xml version="1.0" standalone="no"?>
<!DOCTYPE svg PUBLIC "-//W3C//DTD SVG 1.1//EN" "http://www.w3.org/Graphics/SVG/1.1/DTD/svg11.dtd" >
<svg xmlns="http://www.w3.org/2000/svg" xmlns:xlink="http://www.w3.org/1999/xlink" version="1.1">
<metadata>
Created by FontForge 20170924 at Fri Nov 20 00:09:37 2020
 By www-data
</metadata>
<defs>
<font id="FluentSystemIcons-Regular" horiz-adv-x="500" >
  <font-face 
    font-family="FluentSystemIcons-Regular"
    font-weight="400"
    font-stretch="normal"
    units-per-em="500"
    panose-1="2 0 5 3 0 0 0 0 0 0"
    ascent="500"
    descent="0"
    bbox="-4 -0.0289855 500.029 504"
    underline-thickness="0"
    underline-position="5"
    unicode-range="U+F101-FBAB"
  />
<missing-glyph horiz-adv-x="0" 
 />
    <glyph glyph-name="ic_fluent_album_24_regular" unicode="&#x6a4;" arabic-form="isolated" 
d="M208 313q0 17 12.5 29t29.5 12h83q18 0 30 -12t12 -29v-21q0 -18 -12 -30t-30 -12h-83q-17 0 -29.5 12t-12.5 30v21zM250 323q-4 0 -7 -3t-3 -8v-20q0 -5 3 -8t7 -3h83q5 0 8 3t3 8v21q0 4 -3 7t-8 3h-83zM83 417q-17 0 -29 -12.5t-12 -29.5v-250q0 -17 12 -29.5
t29 -12.5h334q17 0 29 12.5t12 29.5v250q0 17 -12 29.5t-29 12.5h-334zM417 385q4 0 7 -3t3 -7v-250q0 -4 -3 -7t-7 -3h-261v270h261zM83 385h42v-270h-42q-4 0 -7 3t-3 7v250q0 4 3 7t7 3z" />
    <glyph glyph-name="ic_fluent_album_add_24_regular" unicode="&#x6a4;" arabic-form="final" 
d="M42 375q0 17 12 29.5t29 12.5h334q17 0 29 -12.5t12 -29.5v-250q0 -17 -12 -29.5t-29 -12.5h-157q7 15 9 32h148q4 0 7 3t3 7v250q0 4 -3 7t-7 3h-261v-116q-15 3 -31 1v115h-42q-4 0 -7 -3t-3 -7v-119q-17 -9 -31 -23v142zM250 354q-17 0 -29.5 -12t-12.5 -29v-21
q0 -18 12.5 -30t29.5 -12h83q18 0 30 12t12 30v21q0 17 -12 29t-30 12h-83zM333 323q5 0 8 -3t3 -8v-20q0 -5 -3 -8t-8 -3h-83q-4 0 -7 3t-3 8v21q0 4 3 7t7 3h83zM135 250q31 0 57.5 -15.5t42 -42t15.5 -57t-15.5 -57t-42 -42t-57.5 -15.5t-57 15.5t-41.5 41.5t-15.5 57.5
t15.5 57.5t41.5 41.5t57 15.5zM146 73v52h52q4 0 7 3t3 7.5t-3 7.5t-7 3h-52v52q0 6 -5.5 9t-10.5 0t-5 -9v-52h-52q-4 0 -7.5 -3t-3.5 -7.5t3.5 -7.5t7.5 -3h52v-52q0 -6 5 -9t10.5 0t5.5 9z" />
    <glyph glyph-name="ic_fluent_alert_urgent_16_regular" unicode="&#x6a4;" arabic-form="initial" 
d="M334 467q-5 3 -11.5 0.5t-9 -8t0 -12t8.5 -8.5l9 -5q48 -29 77 -77q21 -34 27 -77q3 -22 3 -44v-2q-1 -6 4 -10.5t11.5 -4.5t11 4.5t4.5 10.5v0v1q1 23 -2 45q-7 51 -31.5 92.5t-63.5 71.5q-22 17 -38 23zM337 388q-7 5 -15.5 1t-9 -13t7.5 -14q22 -15 34.5 -38.5
t13.5 -49.5v-1q0 -6 4.5 -10.5t11 -4.5t11 4.5t4.5 10.5v2q0 10 -2 19q-4 23 -15 44t-28 37q-6 5 -12 9t-5 4zM79 165q-16 30 -15.5 63t17 61.5t45.5 45t62 16.5t62 -16t46 -45l25 -44l60 -43q7 -5 6.5 -13.5t-7.5 -12.5l-79 -46v0l-86 -50v1l-79 -46q-7 -4 -14.5 -0.5
t-8.5 12.5l-8 73zM106 181l28 -47l2 -6l5 -53l202 117l-43 31q-2 2 -4 5l-27 47q-13 22 -34.5 35t-47 13t-47.5 -12.5t-34.5 -34.5t-12.5 -47.5t13 -47.5zM227 52q12 -16 32 -19.5t37.5 6.5t24.5 29t-1 38z" />
    <glyph glyph-name="ic_fluent_arrow_right_16_regular" unicode="&#x6a4;" arabic-form="medial" 
d="M78 266q-6 0 -10.5 -5t-4.5 -11t4.5 -11t10.5 -5h303l-126 -113q-7 -6 -5 -15t10.5 -11.5t15.5 3.5l156 140q5 5 5 12t-5 12l-156 140q-5 4 -11.5 4t-10.5 -5t-4 -11.5t5 -10.5l126 -113h-303z" />
    <glyph glyph-name="ic_fluent_arrow_undo_16_regular" unicode="&#x6a6;" arabic-form="isolated" 
d="M214 380q28 27 67 26.5t66.5 -28t27.5 -66.5t-27 -67l-156 -156q-5 -4 -5 -10.5t5 -11t11.5 -4.5t10.5 4l156 156q25 24 34 57t0 66t-33 57t-56.5 32.5t-65.5 -0.5t-57 -33l-67 -67v87q0 6 -4.5 11t-11 5t-11 -5t-4.5 -11v-125q0 -7 4.5 -11.5t10.5 -4.5h125
q7 0 11.5 4.5t4.5 11t-4.5 11.5t-11.5 5h-87z" />
    <glyph glyph-name="ic_fluent_arrow_up_left_16_regular" unicode="&#x6a6;" arabic-form="final" 
d="M266 406q6 0 10.5 4.5t4.5 11t-4.5 11.5t-10.5 5h-188q-6 0 -10.5 -5t-4.5 -11v-188q0 -6 4.5 -10.5t11 -4.5t11 4.5t4.5 10.5v150l317 -317q4 -5 10.5 -5t11.5 5t5 11.5t-5 10.5l-317 317h150z" />
    <glyph glyph-name="ic_fluent_arrow_up_left_20_regular" unicode="&#x6a6;" arabic-form="initial" 
d="M288 400q5 0 8.5 3.5t3.5 9t-3.5 9t-8.5 3.5h-200q-6 0 -9.5 -3.5t-3.5 -8.5v-200q0 -6 3.5 -9.5t9 -3.5t9 3.5t3.5 8.5v170l304 -303q3 -4 8.5 -4t9 3.5t3.5 9t-4 8.5l-303 304h170z" />
    <glyph glyph-name="ic_fluent_backpack_add_20_regular" unicode="&#x6a6;" arabic-form="medial" 
d="M250 450q-26 0 -44 -18.5t-18 -44.5v-1q-40 -18 -64 -55t-24 -81v-125q0 -31 22 -53t53 -22h81q-9 12 -16 25h-65q-21 0 -35.5 14.5t-14.5 35.5v50h50v-37q0 -6 3.5 -9.5t9 -3.5t9 3.5t3.5 9.5v37h30q4 13 10 25h-115v50q0 48 32.5 84t80.5 40.5t86.5 -24t48.5 -75.5
q13 -1 26 -5q-6 38 -28.5 69t-57.5 47v2q0 25 -18.5 43.5t-44.5 18.5zM250 400q-19 0 -37 -5q3 13 13.5 21.5t23.5 8.5t23.5 -8.5t13.5 -21.5q-18 5 -37 5zM283 250q18 13 39 19q3 6 3 14q0 17 -12.5 29.5t-29.5 12.5h-65q-18 0 -30.5 -12.5t-12.5 -29.5q0 -14 9.5 -23.5
t22.5 -9.5h76zM200 283q0 7 5 12t12 5h66q7 0 12 -5t5 -12q0 -4 -2 -6t-6 -2h-84q-4 0 -6 2t-2 6zM475 138q0 -31 -15 -57t-41 -41t-56.5 -15t-56.5 15t-41 41t-15 56.5t15 56.5t41 41t56.5 15t56.5 -15t41 -41t15 -56zM375 188q0 5 -3.5 8.5t-9 3.5t-9 -3.5t-3.5 -8.5v-38
h-37q-6 0 -9.5 -3.5t-3.5 -9t3.5 -9t8.5 -3.5h38v-37q0 -6 3.5 -9.5t9 -3.5t9 3.5t3.5 9.5v37h38q5 0 8.5 3.5t3.5 9t-3.5 9t-8.5 3.5h-38v38z" />
    <glyph glyph-name="ic_fluent_backpack_add_24_regular" unicode="&#x684;" arabic-form="isolated" 
d="M250 458q-30 0 -52.5 -20.5t-25.5 -50.5q-41 -22 -65 -61.5t-24 -85.5v-131q0 -28 20 -47.5t48 -19.5h116q-14 14 -23 31h-93q-15 0 -25.5 10.5t-10.5 25.5v64h52v-32q0 -7 4.5 -11.5t11 -4.5t11 4.5t4.5 11.5v32h36q6 19 16 35h-135v32q0 51 34 89.5t85.5 44.5t94 -24
t53.5 -80q17 -2 33 -9q-5 40 -28 73.5t-59 52.5q-3 30 -25.5 50.5t-52.5 20.5zM250 406q-21 0 -42 -5q6 12 17.5 19t24.5 7t24.5 -7t17.5 -19q-21 5 -42 5zM292 250q17 11 37 16q4 8 4 17q0 21 -14.5 35.5t-35.5 14.5h-66q-21 0 -35.5 -14.5t-14.5 -35.5q0 -14 9.5 -23.5
t23.5 -9.5h92zM198 283q0 8 5.5 13.5t13.5 5.5h66q8 0 13.5 -5.5t5.5 -13.5q0 -2 -2 -2h-100q-2 0 -2 2zM479 135q0 31 -15.5 57.5t-42 42t-57 15.5t-57 -15.5t-42 -42t-15.5 -57.5t15.5 -57t41.5 -41.5t57.5 -15.5t57.5 15.5t41.5 41.5t15.5 57zM375 125v-52q0 -6 -5 -9
t-10.5 0t-5.5 9v52h-52q-4 0 -7 3t-3 7.5t3 7.5t7 3h52v52q0 6 5.5 9t10.5 0t5 -9v-52h52q4 0 7 -3t3 -7.5t-3 -7.5t-7 -3h-52z" />
    <glyph glyph-name="ic_fluent_backpack_add_28_regular" unicode="&#x684;" arabic-form="final" 
d="M250 464q-33 0 -58 -21t-30 -54q-42 -23 -66.5 -64t-24.5 -88v-134q0 -28 20 -47.5t47 -19.5h137q-13 12 -22 26h-115q-16 0 -28 12t-12 29v85h63v-32q0 -5 4 -9t9.5 -4t9.5 4t4 9v32h55q7 14 16 26h-161v23q0 29 11.5 56t32 48t47.5 32t57 11h8q54 0 94.5 -34t50.5 -86
q15 -4 29 -11q-4 43 -28 79t-62 57q-5 33 -30 54t-58 21zM246 411q-27 0 -52 -8q8 16 23 25.5t33 9.5t33 -9.5t23 -25.5q-25 8 -52 8h-8zM299 250q17 9 35 14q5 8 5 17q0 24 -17 41t-41 17h-62q-24 0 -41 -17t-17 -41q0 -13 9 -22t22 -9h107zM219 313h62q13 0 22.5 -9.5
t9.5 -22.5q0 -2 -1.5 -3t-3.5 -1h-116q-4 0 -5 4q1 13 10 22.5t22 9.5zM482 134q0 -32 -15.5 -58.5t-42 -42t-58 -15.5t-58.5 15.5t-42.5 42t-15.5 58t15.5 58.5t42.5 42.5t58.5 15.5t58 -15.5t42 -42.5t15.5 -58zM375 205q0 4 -2.5 6.5t-6.5 2.5t-6.5 -2.5t-2.5 -6.5v-62
h-62q-4 0 -6.5 -2.5t-2.5 -6.5t2.5 -6.5t6.5 -2.5h62v-62q0 -4 2.5 -6.5t6.5 -2.5t6.5 2.5t2.5 5.5v63h63q3 0 5.5 2.5t2.5 6.5t-2.5 6.5t-6.5 2.5h-62v62z" />
    <glyph glyph-name="ic_fluent_backpack_add_48_regular" unicode="&#x684;" arabic-form="initial" 
d="M250 458q-32 0 -55.5 -21t-27.5 -53q-38 -22 -61 -60.5t-23 -83.5v-144q0 -22 16 -38t39 -16h129q-11 12 -20 26h-109q-12 0 -20.5 8t-8.5 20v86h58v-34q0 -7 6.5 -11t13 0t6.5 11v34h45q5 14 12 26h-141v32q0 38 19 70t51.5 51t70.5 19q50 0 88.5 -31.5t49.5 -79.5
q14 -3 27 -8q-5 39 -27 71.5t-55 51.5q-4 32 -27.5 53t-55.5 21zM250 406q-27 0 -53 -8q7 16 21.5 25t31.5 9t31.5 -9t21.5 -25q-26 8 -53 8zM292 250q18 11 38 16q3 7 3 13q0 23 -15.5 38.5t-38.5 15.5h-58q-23 0 -38.5 -15.5t-15.5 -38.5q0 -12 8.5 -20.5t20.5 -8.5h96z
M221 307h58q12 0 20 -8t8 -20q0 -1 -1 -2t-2 -1h-108q-1 0 -2 1t-1 2q0 12 8 20t20 8zM479 135q0 -31 -15.5 -57t-41.5 -41.5t-57.5 -15.5t-57.5 15.5t-41.5 41.5t-15.5 57.5t15.5 57.5t41.5 41.5t57.5 15.5t57.5 -15.5t41.5 -41.5t15.5 -58zM375 208q0 6 -5 9t-10.5 0
t-5.5 -9v-62h-62q-5 0 -8 -3t-3 -7.5t3 -7.5t8 -3h62v-62q0 -7 5.5 -10t10.5 0t5 10v62h63q4 0 7 3t3 7.5t-3 7.5t-7 3h-63v62z" />
    <glyph glyph-name="ic_fluent_bot_20_regular" unicode="&#x684;" arabic-form="medial" 
d="M300 363q-10 0 -17.5 -7.5t-7.5 -18t7.5 -18t17.5 -7t17.5 7.5t7.5 17.5t-7.5 18t-17.5 7.5zM175 338q0 10 7.5 17.5t17.5 7.5t17.5 -7.5t7.5 -18t-7.5 -18t-17.5 -7t-17.5 7.5t-7.5 17v1zM263 438q0 5 -4 8.5t-9 3.5t-8.5 -3.5t-4.5 -8.5v-13h-74q-16 0 -27 -11t-11 -27
v-99q0 -16 11 -27t27 -11h175q15 0 26 11t11 27v100q0 15 -11 26t-27 11h-74v13zM163 400h175q5 0 8.5 -3.5t3.5 -8.5v-100q0 -6 -3.5 -9.5t-8.5 -3.5h-175q-6 0 -9.5 3.5t-3.5 8.5v101q0 5 3.5 8.5t8.5 3.5h1zM256 50q90 1 128 36q27 24 28 64l1 17q0 19 -13.5 32t-32.5 13
h-234q-19 0 -32 -13t-13 -32v-17q1 -40 28 -64q38 -35 128 -36h12zM133 187h234q9 0 15 -5.5t6 -14.5v-11q0 -33 -21 -51q-32 -30 -117 -30t-117 30q-20 18 -20 51v11q0 9 5.5 14.5t14.5 5.5z" />
    <glyph glyph-name="ic_fluent_call_connecting_20_regular" unicode="&#x683;" arabic-form="isolated" 
d="M163 447q-19 5 -38.5 3t-36 -11.5t-26.5 -25.5t-11 -37q-2 -85 50.5 -175.5t123.5 -137.5q17 -12 36 -13t36 7t29.5 22.5t20 33.5t-3.5 38l-23 42q-12 21 -34 29t-43 -1l-17 -6q-12 -5 -20 2q-21 22 -28 53q-3 11 8 20l15 11q19 14 23.5 37t-6.5 44l-25 42q-10 18 -30 23
zM76 376q1 28 25.5 41.5t55.5 5.5q10 -3 15 -11l24 -42q7 -13 4 -27t-14 -22l-15 -11q-10 -8 -15.5 -20t-2.5 -25q9 -39 36 -66q9 -9 21.5 -10.5t24.5 3.5l17 6q13 5 26 0t20 -17l24 -42q4 -9 1 -18q-11 -30 -36 -41.5t-48 4.5q-66 44 -115.5 128.5t-47.5 163.5zM319 448
q-5 3 -10 1.5t-7.5 -6t-1 -9.5t5.5 -7l10 -6q46 -25 74.5 -68.5t33.5 -95.5l1 -8q0 -8 7 -11t13 1.5t5 11.5l-1 8q-6 58 -38 107t-83 77zM289 381q3 5 8 6t9 -1l4 -2q30 -19 50 -48.5t26 -64.5l1 -6q2 -8 -4 -12.5t-12.5 -2t-7.5 9.5l-1 7q-5 30 -22 55t-43 40l-3 2
q-5 3 -6 8t1 9z" />
    <glyph glyph-name="ic_fluent_call_exclamation_20_regular" unicode="&#x683;" arabic-form="final" 
d="M250 450q103 0 179 -67q12 -10 17.5 -25.5t2.5 -31.5l-4 -20q-3 -15 -15 -23.5t-27 -7.5l-41 4q-13 2 -23 10.5t-14 23.5l-12 43q-30 13 -63 13q-29 0 -63 -13l-12 -43q-4 -15 -10 -23q-8 -9 -20 -11l-41 -4q-15 -1 -28 7.5t-17 23.5l-6 20q-5 15 -1 30.5t15 26.5
q29 29 74 47q51 20 109 20zM337 362l1 -3l11 -39q4 -15 15 -16l41 -4q6 0 10.5 3t5.5 7l3 21q2 10 -1 19t-11 15q-68 60 -162 60q-54 0 -100 -19q-40 -16 -66 -41q-6 -6 -8 -14.5t0 -17.5l7 -20q1 -6 6.5 -10t12.5 -3l42 5l1 1q3 4 6 14l12 42q3 11 16 18q37 14 71 14
q37 0 72 -15q4 -1 8.5 -5.5t6.5 -10.5v-1zM363 163q0 -31 -15.5 -57t-41 -41t-56.5 -15t-56.5 15t-41 41t-15 56.5t15.5 56.5t40.5 41t56.5 15t56.5 -15t41 -41t15.5 -56zM250 225q-5 0 -9 -3.5t-4 -8.5v-50q0 -6 4 -9.5t9 -3.5t9 3.5t4 8.5v51q0 5 -4 8.5t-9 3.5zM250 97
q6 0 11 4.5t5 11t-5 11t-11 4.5t-11 -4.5t-5 -11t5 -11t11 -4.5z" />
    <glyph glyph-name="ic_fluent_call_transfer_20_regular" unicode="&#x683;" arabic-form="initial" 
d="M163 447q-19 5 -38.5 3t-36 -11.5t-26.5 -25.5t-11 -37q-2 -85 50.5 -175.5t123.5 -137.5q17 -12 36 -13t36 7t29.5 22.5t20 33.5t-3.5 38l-23 42q-12 21 -34 29t-43 -1l-17 -6q-12 -5 -20 2q-21 22 -28 53q-3 11 8 20l15 11q19 14 23.5 37t-6.5 44l-25 42q-10 18 -30 23
zM76 376q1 28 25.5 41.5t55.5 5.5q10 -3 15 -11l24 -42q7 -13 4 -27t-14 -22l-15 -11q-10 -8 -15.5 -20t-2.5 -25q9 -39 36 -66q9 -9 21.5 -10.5t24.5 3.5l17 6q13 5 26 0t20 -17l24 -42q4 -9 1 -18q-11 -30 -36 -41.5t-48 4.5q-66 44 -115.5 128.5t-47.5 163.5zM300 288
q0 -6 -3.5 -9.5t-9 -3.5t-9 3.5t-3.5 9t3.5 9t9 3.5t9 -3.5t3.5 -8.5zM325 313q0 -6 -3.5 -9.5t-9 -3.5t-9 3.5t-3.5 9t3.5 9t9 3.5t9 -3.5t3.5 -8.5zM350 338q0 -6 -3.5 -9.5t-9 -3.5t-9 3.5t-3.5 9t3.5 9t9 3.5t9 -3.5t3.5 -8.5zM438 300q-6 0 -9.5 3.5t-3.5 8.5v95
l-54 -53q-3 -4 -8.5 -4t-9 3.5t-3.5 9t4 8.5l53 54h-94q-6 0 -9.5 3.5t-3.5 9t3.5 9t8.5 3.5h126q5 0 8.5 -3.5t3.5 -8.5v-125q0 -6 -3.5 -9.5t-8.5 -3.5z" />
    <glyph glyph-name="ic_fluent_camera_off_24_regular" unicode="&#x683;" arabic-form="medial" 
d="M68 454q-6 7 -15 4.5t-11.5 -11.5t4.5 -15l40 -40q-20 -8 -32 -25.5t-12 -38.5v-198q0 -28 19.5 -48t47.5 -19h282q11 0 21 3l20 -20q4 -4 10.5 -4t11 4.5t4.5 11t-4 10.5zM384 94h-275q-15 0 -25.5 10.5t-10.5 25.5v198q0 15 10.5 26t25.5 11h4l65 -65
q-23 -28 -21.5 -64.5t27 -62.5t62 -27.5t64.5 22.5zM200 278l88 -88q-19 -14 -42.5 -12.5t-40 18t-18 40t12.5 42.5zM234 332l32 -32q16 -4 28 -16t16 -28l32 -32q4 22 -3 44t-23 38t-37.5 23t-44.5 3zM427 328v-189l29 -28q2 9 2 19v198q0 28 -19.5 48t-47.5 20h-43l-17 29
q-7 10 -17.5 16.5t-23.5 6.5h-79q-12 0 -23 -6t-17 -17l-12 -18l23 -23l17 27q5 6 12 6h79q9 0 14 -8l21 -37q5 -7 14 -7h52q15 0 25.5 -11t10.5 -26z" />
    <glyph glyph-name="ic_fluent_chat_bubbles_question_20_regular" unicode="&#x686;" arabic-form="isolated" 
d="M212 377q-16 -3 -26 -21q-3 -4 -8 -5.5t-9.5 1t-5.5 7.5t1 10q16 28 44 33q24 5 44 -9q10 -6 16 -16t6 -21q1 -25 -27 -42q-16 -9 -20 -15q-2 -4 -2 -11q0 -6 -3.5 -9.5t-9 -3.5t-9 3.5t-3.5 8.5q0 15 6 25q7 12 28 24q16 9 15.5 19t-11.5 17.5t-26 4.5zM219 213
q8 0 13.5 5t5 13t-5.5 13.5t-13 5.5t-13.5 -5.5t-5.5 -13.5t5.5 -13.5t13.5 -5.5v1zM213 475q-44 0 -81.5 -21.5t-59.5 -59t-22 -80.5t21 -81l-20 -52q-3 -6 -1.5 -13t6 -12.5t11.5 -7.5t14 0l62 18q45 -22 94.5 -14t86 42t47.5 83t-7.5 95.5t-59.5 74.5t-91 28zM75 313
q0 46 28 82.5t72.5 49t87.5 -4t67 -56t19.5 -85.5t-36 -80t-77 -42t-86.5 13l-4 2l-72 -20l24 64l-3 5q-20 33 -20 72zM287 75q-36 0 -68 15t-56 42q22 -6 44 -7q36 -25 80 -25q33 0 62 15l4 2l72 -20l-24 64l3 5q20 33 20 72q0 42 -24 77q0 23 -6 44q26 -23 40.5 -55
t14.5 -66q0 -43 -21 -80l20 -52q3 -6 1.5 -13t-6 -12.5t-11.5 -7.5t-14 0l-62 18q-33 -16 -69 -16z" />
    <glyph glyph-name="ic_fluent_chat_mail_20_regular" unicode="&#x686;" arabic-form="final" 
d="M150 350q0 5 3.5 8.5t8.5 4.5h76q5 0 8.5 -4t3.5 -9t-3.5 -9t-8.5 -4h-75q-6 0 -9.5 4t-3.5 9zM163 313q-6 -1 -9.5 -4.5t-3.5 -8.5t3.5 -9t8.5 -4h51q5 1 8.5 4.5t3.5 8.5t-3.5 9t-8.5 4h-50zM200 475q-40 0 -74.5 -19.5t-54.5 -54t-21 -74t18 -74.5l-17 -62
q-3 -7 2.5 -12.5t12.5 -2.5l59 19q41 -24 88 -19.5t83.5 34.5t48.5 76t-4 90.5t-55 71.5t-86 27zM75 325q0 43 26 76.5t67.5 44.5t81 -6t60 -54.5t14 -80t-38 -71.5t-74 -33.5t-78.5 18.5q-5 4 -11 2l-41 -14l13 44q1 6 -2 10q-17 30 -17 64zM307 126l-60 30q16 5 31 13
l35 -18l112 57v17q0 10 -7.5 17.5t-17.5 7.5h-42q6 12 10 25h32q21 0 35.5 -14.5t14.5 -35.5v-125q0 -21 -14.5 -35.5t-35.5 -14.5h-175q-21 0 -35.5 14.5t-14.5 35.5v52q12 -2 25 -2v-50q0 -10 7.5 -17.5t17.5 -7.5h175q10 0 17.5 7.5t7.5 17.5v80l-107 -54q-6 -2 -11 0z
" />
    <glyph glyph-name="ic_fluent_chat_off_20_regular" unicode="&#x686;" arabic-form="initial" 
d="M100 382l-46 47q-4 3 -4 8.5t3.5 9t9 3.5t8.5 -4l375 -375q4 -3 4 -8.5t-3.5 -9t-9 -3.5t-8.5 4l-47 46q-27 -24 -61 -37t-71 -13q-48 0 -90 22l-3 1l-91 -23q-6 -1 -10.5 2.5t-5.5 8.5v2l23 94l-1 3q-18 34 -21 72l-1 18q0 37 13 71t37 61zM365 118l-91 90q-2 -6 -9 -8
h-77q-5 0 -9 3.5t-4 8t2.5 8.5t7.5 5h72l-50 50h-19q-5 0 -8.5 3t-4.5 7.5t1.5 8.5t6.5 5l-65 66q-21 -24 -32 -53.5t-11 -61.5q0 -46 22 -86q2 -3 2 -6l-19 -78l75 19h5l4 -2q40 -22 86 -22q32 0 61.5 11t53.5 32zM415 138l-18 18q34 52 27 113t-50.5 104.5t-104.5 50.5
t-113 -27l-18 18q39 27 85 33t90.5 -8.5t78 -48t48 -78t8.5 -90.5t-33 -85zM313 275h-35l-25 25h60q4 0 8 -3.5t4 -8t-2.5 -8.5t-7.5 -5h-2z" />
    <glyph glyph-name="ic_fluent_checkmark_48_regular" unicode="&#x686;" arabic-form="medial" 
d="M418 366q4 -4 4 -9.5t-4 -8.5l-232 -230q-4 -3 -9 -3t-9 3l-96 94q-6 5 -4 12.5t9 9.5t13 -3l87 -85l223 220q4 4 9 4t9 -4z" />
    <glyph glyph-name="ic_fluent_cloud_sync_20_regular" unicode="&#x687;" arabic-form="isolated" 
d="M366 319q-4 46 -34 75q-31 31 -82 31t-82 -31q-30 -29 -34 -75h-6q-33 -2 -55.5 -26.5t-22.5 -58t21.5 -57.5t53.5 -27v25q-21 3 -35.5 20t-14.5 40.5t16.5 41t40.5 17.5h2q9 0 16.5 6.5t8.5 15.5q4 39 28 61.5t63 22.5t63 -22.5t28 -61.5q1 -9 8.5 -15.5t16.5 -6.5h2
q24 0 40.5 -17.5t16.5 -41t-14.5 -40.5t-35.5 -20v-25q32 3 53.5 27t21.5 58t-24 59t-58 25h-2zM271 316l-16 -16q30 -2 53.5 -19t34.5 -44.5t5 -56.5t-27 -50q-5 -5 -12 -3.5t-9 8.5t4 13q15 15 19.5 36.5t-3.5 42t-25.5 33.5t-39.5 15l16 -16q4 -4 4 -9t-3.5 -9t-9 -4
t-8.5 4l-38 38q-4 3 -4 8.5t4 8.5l38 38q3 4 8.5 4t9 -4t3.5 -9t-4 -9zM198 254q3 3 3 8t-3.5 9t-8.5 4t-9 -4q-23 -22 -28.5 -53t7.5 -59.5t40 -44.5t59 -14l-17 -16q-4 -4 -4 -9t4 -8.5t9 -3.5t9 3l37 38q4 3 4 8.5t-4 8.5l-37 38q-4 4 -9 4t-9 -4t-4 -9t4 -9l16 -16
q-24 -2 -44.5 10t-30.5 33.5t-6 45t21 40.5h1z" />
    <glyph glyph-name="ic_fluent_content_view_20_regular" unicode="&#x687;" arabic-form="final" 
d="M125 325q0 10 7.5 17.5t17.5 7.5h200q10 0 17.5 -7.5t7.5 -17.5v-50q0 -10 -7.5 -17.5t-17.5 -7.5h-200q-10 0 -17.5 7.5t-7.5 17.5v50zM350 325h-200v-50h200v50zM300 225q-10 0 -17.5 -7.5t-7.5 -17.5v-25q0 -10 7.5 -17.5t17.5 -7.5h50q10 0 17.5 7.5t7.5 17.5v25
q0 10 -7.5 17.5t-17.5 7.5h-50zM300 200h50v-25h-50v25zM125 213q0 5 3.5 8.5t9.5 3.5h100q5 0 8.5 -3.5t3.5 -9t-3.5 -9t-8.5 -3.5h-100q-6 0 -9.5 3.5t-3.5 8.5v1zM138 175q-6 0 -9.5 -3.5t-3.5 -9t3.5 -9t9.5 -3.5h100q5 0 8.5 3.5t3.5 9t-3.5 9t-8.5 3.5h-100zM75 350
q0 31 22 53t53 22h200q31 0 53 -22t22 -53v-200q0 -31 -22 -53t-53 -22h-200q-31 0 -53 22t-22 53v200zM150 400q-21 0 -35.5 -14.5t-14.5 -35.5v-200q0 -21 14.5 -35.5t35.5 -14.5h200q21 0 35.5 14.5t14.5 35.5v200q0 21 -14.5 35.5t-35.5 14.5h-200z" />
    <glyph glyph-name="ic_fluent_cube_rotate_20_regular" unicode="&#x687;" arabic-form="initial" 
d="M224 412q26 12 52 0l117 -54q7 -4 7 -11v-47h25v47q0 10 -6 19.5t-16 14.5l-116 53q-18 8 -37 8t-37 -8l-116 -53q-10 -5 -16 -14.5t-6 -19.5v-47h25v47q0 7 7 11zM85 225q9 -7 19 -13q28 -17 65.5 -27t80.5 -10t80.5 10t65.5 27l4 2q8 5 14.5 10.5t10.5 9.5q8 8 13 16
h-38q-5 0 -9 3.5t-3.5 9t4 9t8.5 3.5h63q5 0 8.5 -3.5t3.5 -8.5v-63q0 -5 -3.5 -9t-9 -3.5t-9 4t-3.5 8.5v24q-11 -13 -25 -23q-12 -9 -25 -16q-30 -17 -69 -26t-81 -9t-81 9t-69 26q-13 7 -25 16q-14 10 -25 23v-24q0 -5 -3.5 -9t-9 -4t-9 4t-3.5 9v63q0 5 3.5 8.5t8.5 3.5
h63q5 0 8.5 -3.5t4 -9t-3.5 -9t-9 -3.5h-38q5 -8 13 -16q5 -5 10 -9zM100 157v-3q0 -8 7 -12l117 -54q26 -12 52 0l117 54q7 4 7 12v3q13 6 25 14v-18q0 -10 -6 -19.5t-16 -14.5l-116 -53q-18 -8 -37 -8t-37 8l-116 53q-10 5 -16 14.5t-6 20.5v17q12 -8 25 -14zM151 330
q2 5 7 7t9 0l83 -36l83 36q4 2 9 0t7 -7t0 -9.5t-7 -6.5l-79 -35v-54q0 -5 -4 -8.5t-9 -3.5t-9 3.5t-4 8.5v54l-79 35q-5 2 -7 6.5t0 9.5z" />
    <glyph glyph-name="ic_fluent_data_line_20_regular" unicode="&#x687;" arabic-form="medial" 
d="M425 88q0 -6 -3.5 -9.5t-8.5 -3.5h-300q-16 0 -27 11t-11 27v300q0 5 3.5 8.5t9 3.5t9 -3.5t3.5 -8.5v-300q0 -6 3.5 -9.5t9.5 -3.5h300q5 0 8.5 -3.5t3.5 -9.5v1zM300 363q0 5 3.5 8.5t8.5 3.5h101q5 0 8.5 -3.5t3.5 -8.5v-100q0 -6 -3.5 -9.5t-9 -3.5t-9 3.5t-3.5 8.5
v70l-116 -116q-4 -4 -9 -4t-9 4l-41 41l-79 -78q-3 -4 -8.5 -4t-9 3.5t-3.5 9t4 8.5l87 88q4 4 9 4t9 -4l41 -41l107 107h-69q-6 0 -9.5 3.5t-3.5 8.5v1z" />
    <glyph glyph-name="ic_fluent_device_meeting_room_20_regular" unicode="&#x68d;" arabic-form="isolated" 
d="M152 425q-21 0 -38.5 -13.5t-22.5 -35.5l-39 -175q-3 -14 0 -27.5t12 -25t21.5 -17.5t27.5 -6h274q15 0 27.5 6t21.5 17.5t12 25t0 27.5l-39 175q-5 22 -22.5 35.5t-38.5 13.5h-196zM116 371q3 13 13 21t23 8h196q13 0 23 -8t13 -21l40 -175q4 -18 -7.5 -32t-29.5 -14
h-274q-18 0 -29.5 14t-7.5 32zM138 100q-6 0 -9.5 -3.5t-3.5 -9t3.5 -9t9.5 -3.5h225q5 0 8.5 3.5t3.5 9t-3.5 9t-8.5 3.5h-225z" />
    <glyph glyph-name="ic_fluent_device_meeting_room_remote_20_regular" unicode="&#x68d;" arabic-form="final" 
d="M91 376q5 22 22.5 35.5t38.5 13.5h196q21 0 38.5 -13.5t22.5 -35.5l39 -175q3 -14 0 -27.5t-12 -25t-21.5 -17.5t-27.5 -6h-162v25h162q18 0 29.5 14t7.5 32l-40 175q-3 13 -13 21t-23 8h-196q-13 0 -23 -8t-13 -21l-11 -46h-17l-8 -1zM224 75h139q5 0 8.5 3.5t3.5 9
t-3.5 9t-8.5 3.5h-138v-12q0 -7 -1 -13zM125 200q10 0 17.5 7.5t7.5 17.5t-7.5 17.5t-17.5 7.5t-17.5 -7.5t-7.5 -17.5t7.5 -17.5t17.5 -7.5zM50 263q0 15 11 26t26 11h76q15 0 26 -11t11 -27v-174q0 -16 -11 -27t-27 -11h-74q-16 0 -27 11t-11 27v175zM88 275
q-6 0 -9.5 -3.5t-3.5 -8.5v-175q0 -6 3.5 -9.5t9.5 -3.5h75q5 0 8.5 3.5t3.5 9.5v175q0 5 -3.5 8.5t-8.5 3.5h-75z" />
    <glyph glyph-name="ic_fluent_draw_shape_24_regular" unicode="&#x68c;" arabic-form="isolated" 
d="M141 418q-24 0 -41 -17t-17 -40v-200q0 -6 4.5 -10.5t11 -4.5t11.5 4.5t5 10.5v200q0 11 7.5 18.5t18.5 7.5h198q10 0 18 -7.5t8 -18.5v-96q15 7 31 6v90q0 23 -17 40t-40 17h-198zM423 238l-3 3v0q-14 10 -31.5 9t-29.5 -14l-79 -80q-8 -8 -11 -18l-12 -41q-17 -2 -34 0
v1l1 2q3 8 4 13.5t-1 12t-9.5 10.5t-21.5 3q-11 0 -21 -2.5t-28 -10.5v0q-24 -11 -37 -11q-7 0 -14 2q-1 0 -3 -1t-1 -3q2 -10 7 -15.5t11.5 -7t12.5 0.5q42 12 63 16q2 0 3.5 -1.5t0.5 -3.5q-3 -11 1 -20q5 -11 20 -14q34 -7 69 2l48 15q10 4 18 12l79 80q12 13 12 30
t-12 29zM301 129q0 3 2 5l80 81q3 3 8.5 3.5t9 -3t4 -7.5t-2.5 -8l-80 -82q-2 -2 -5 -3l-23 -7z" />
    <glyph glyph-name="ic_fluent_draw_text_24_regular" unicode="&#x68c;" arabic-form="final" 
d="M228 438q11 -1 15 -11l74 -203l-24 -25l-10 27h-116l-27 -70q-3 -6 -9 -8.5t-12 -0.5t-8.5 8t-0.5 12l31 80l73 181q4 10 14 9v1zM228 378l-49 -121h93zM423 238l-3 3v0q-14 10 -31.5 9t-29.5 -14l-79 -80q-8 -8 -11 -18l-12 -41q-17 -2 -34 0v1l1 2q3 8 4 13.5t-1 12
t-9.5 10.5t-21.5 3q-11 0 -21 -2.5t-28 -10.5v0q-24 -11 -37 -11q-7 0 -14 2q-1 0 -3 -1t-1 -3q2 -10 7 -15.5t11.5 -7t12.5 0.5q42 12 63 16q2 0 3.5 -1.5t0.5 -3.5q-3 -11 1 -20q5 -11 20 -14q34 -7 69 2l48 15q10 4 18 12l79 80q12 13 12 30t-12 29zM301 129q0 3 2 5
l80 81q3 3 8.5 3.5t9 -3t4 -7.5t-2.5 -8l-80 -82q-2 -2 -5 -3l-23 -7z" />
    <glyph glyph-name="ic_fluent_folder_arrow_up_16_regular" unicode="&#x68e;" arabic-form="isolated" 
d="M94 328v-140q0 -13 9 -22.5t22 -9.5h32q1 -16 6 -31h-38q-26 0 -44 18.5t-18 44.5v187q0 26 18 44t44 18h55q5 1 10 -3l34 -28h151q26 0 44 -18t18 -44v-39q-14 11 -31 20v19q0 13 -9 22t-22 9h-149l-34 -41q-5 -6 -12 -6h-86zM174 406h-49q-13 0 -22 -9t-9 -22v-16h79
l24 29zM469 172q0 -38 -19 -70.5t-51.5 -51.5t-70.5 -19t-70.5 19t-51.5 51.5t-18.5 70.5t19 70.5t51 51.5t70.5 18.5t70.5 -19t51.5 -51t19 -70.5zM339 245v1q-4 4 -11 4v0q-6 0 -11 -5l-62 -62q-5 -5 -5 -11.5t4.5 -11t11 -4.5t11.5 5l36 36v-88q0 -6 4.5 -10.5t11 -4.5
t11 4.5t4.5 10.5v88l36 -36q4 -5 10.5 -5t11 4.5t4.5 11t-4 11.5z" />
    <glyph glyph-name="ic_fluent_folder_arrow_up_20_regular" unicode="&#x68e;" arabic-form="final" 
d="M113 425h66q13 0 23 -7l40 -30h146q25 0 43.5 -18.5t18.5 -44.5v-81q-12 9 -25 16v65q0 16 -11 27t-26 11h-147l-37 -39q-11 -12 -27 -12h-102v-174q0 -16 11 -27t27 -11h117q4 -13 10 -25h-127q-26 0 -44.5 18.5t-18.5 43.5v226q0 25 18.5 43.5t43.5 18.5h1zM75 363v-25
h102q5 -1 9 3l31 33l-30 24q-4 2 -8 2h-66q-16 0 -27 -11t-11 -27v1zM475 138q0 -31 -15 -57t-41 -41t-56.5 -15t-56.5 15t-41 41t-15 56.5t15 56.5t41 41t56.5 15t56.5 -15t41 -41t15 -56zM371 196v0q-3 4 -8 4h-1q-5 0 -8 -4l-50 -50q-4 -3 -4 -8.5t3.5 -9t9 -3.5t8.5 4
l29 28v-69q0 -6 3.5 -9.5t9 -3.5t9 3.5t3.5 9.5v69l29 -28q5 -6 12 -4t9 9t-4 12z" />
    <glyph glyph-name="ic_fluent_folder_arrow_up_24_regular" unicode="&#x688;" arabic-form="isolated" 
d="M171 417q15 0 27 -9l52 -43h161q18 0 31 -11.5t16 -29.5v-3v-67q-14 13 -31 22v42q0 6 -4 10t-9 5h-164l-49 -41q-11 -9 -26 -11h-102v-151q0 -6 4 -10.5t9 -4.5h150q5 -17 14 -32h-161q-19 0 -32.5 13t-14.5 31v243q0 18 12.5 31.5t30.5 15.5h86zM171 385h-82
q-6 0 -10.5 -3.5t-5.5 -9.5v-59h98q4 0 8 2l41 34l-39 33q-3 3 -8 3h-2zM479 156q0 -30 -15.5 -57t-42 -42t-57 -15t-57 15t-42 42t-15.5 57.5t15.5 57t41.5 42t57.5 15.5t57.5 -15.5t41.5 -42t15.5 -57.5zM354 194v-100q0 -5 3 -8t7.5 -3t7.5 3t3 8v100l34 -35q3 -3 7.5 -3
t7.5 3t3 7.5t-3 7.5l-52 52q-3 3 -7.5 3t-7.5 -3l-52 -52q-3 -3 -3 -7.5t3 -7.5t7.5 -3t7.5 3z" />
    <glyph glyph-name="ic_fluent_folder_arrow_up_28_regular" unicode="&#x688;" arabic-form="final" 
d="M182 429q13 0 23 -8l45 -37h174q15 0 26.5 -10t13.5 -25v-106q-12 13 -26 22v79q-1 5 -4 8.5t-8 4.5h-176l-42 -35q-10 -8 -22 -9h-123v-201q0 -5 3 -9t8 -5h169q7 -14 16 -27h-183q-16 0 -27.5 11t-12.5 27v279q0 16 10.5 27.5t26.5 12.5zM182 402h-106q-5 0 -9 -3.5
t-4 -8.5v-51h119q4 0 7 2l36 30l-34 28q-3 2 -7 3h-2zM482 152q0 -32 -15.5 -58.5t-42 -42t-58 -15.5t-58.5 15.5t-42.5 42t-15.5 58t15.5 58.5t42.5 42.5t58.5 15.5t58 -15.5t42 -42.5t15.5 -58zM357 202v-122q0 -3 2.5 -6t6.5 -3t6.5 3t2.5 6v122l38 -39q3 -2 6.5 -2
t6.5 2.5t3 6t-3 6.5l-54 54q-2 2 -6 2v0q-4 0 -6 -2l-54 -54q-2 -3 -2 -6.5t2.5 -6t6 -2.5t6.5 2z" />
    <glyph glyph-name="ic_fluent_folder_up_arrow_48_regular" unicode="&#x698;" arabic-form="isolated" 
d="M178 406q13 0 24 -8l28 -25q3 -3 7 -3h182q16 0 27 -11t12 -26v-79q-12 11 -26 20v57q0 5 -3 8.5t-8 4.5h-183l-22 -27q-11 -14 -28 -15h-120v-169q0 -5 3 -9t8 -4h155q4 -14 10 -26h-163q-16 0 -27 10.5t-12 26.5v236q0 16 10.5 27t26.5 12h99zM178 380h-97q-5 0 -9 -3
t-4 -8v-41h118q5 0 9 4l18 22l-27 23q-3 3 -7 3h-1zM479 156q0 -31 -15.5 -57.5t-41.5 -41.5t-57.5 -15t-57.5 15t-41.5 41.5t-15.5 57.5t15.5 57.5t41.5 42t57.5 15.5t57.5 -15.5t41.5 -42t15.5 -57.5zM365 240q-5 0 -8 -3l-52 -53q-3 -3 -3 -7t3 -7t7.5 -3t7.5 3l34 34
v-121q0 -6 5.5 -9t10.5 0t5 9v121l34 -34q3 -3 7.5 -3t7.5 3t3 7t-3 7l-52 53q-3 3 -7 3z" />
    <glyph glyph-name="ic_fluent_fps_30_16_regular" unicode="&#x698;" arabic-form="final" 
d="M313 469q-26 0 -44.5 -18.5t-18.5 -44.5v-93q0 -26 18.5 -44.5t44 -18.5t44 18.5t18.5 44.5v93q0 26 -18.5 44.5t-44.5 18.5h1zM313 281q-13 0 -22.5 9.5t-9.5 22.5v93q0 13 9.5 22.5t22 9.5t22 -9.5t9.5 -22.5v-93q0 -13 -9.5 -22.5t-22.5 -9.5h1zM47 188
q-7 -1 -11.5 -5.5t-4.5 -10.5v-125q0 -7 4.5 -11.5t11 -4.5t11.5 4.5t5 11.5v47h46q7 0 11.5 4.5t4.5 11t-4.5 11t-11.5 4.5h-46v31h78q6 0 10.5 4.5t4.5 11t-4.5 11.5t-10.5 5h-94zM203 188q-6 0 -11 -5t-5 -11v-125q0 -7 5 -11.5t11.5 -4.5t11 4.5t4.5 11.5v31h39
q22 0 38.5 16t16.5 38.5t-16.5 39t-38.5 16.5h-55zM258 109h-39v47h39q10 0 16.5 -6.5t6.5 -16.5t-6.5 -17t-16.5 -7zM344 141q0 19 13.5 33t33.5 14h62q7 0 11.5 -5t4.5 -11.5t-4.5 -11t-11.5 -4.5h-62q-7 0 -11.5 -4.5t-4.5 -11t4.5 -11t11.5 -4.5h31q19 0 33 -13.5
t14 -33t-14 -33.5t-33 -14h-63q-6 0 -10.5 4.5t-4.5 11t4.5 11.5t10.5 4h63q6 1 11 5.5t5 11t-5 11t-11 4.5h-31q-20 0 -33.5 13.5t-13.5 33.5zM156 375q12 0 21 7.5t10.5 19.5t-5 21.5t-18 12.5t-22 -2t-15.5 -16.5t-13.5 -11.5t-14 5.5t-2.5 13.5q5 19 21 31t36 12.5
t36.5 -10t24 -29t2.5 -37.5t-19 -33q14 -13 19 -32t-2.5 -37.5t-24 -29.5t-36.5 -10t-36 13t-21 31q-3 7 2.5 13t14 6t13.5 -11.5t15.5 -17t22 -2.5t18 13t5 21.5t-10.5 19.5t-21 8q-6 0 -10.5 4.5t-4.5 11t4.5 11t10.5 4.5z" />
    <glyph glyph-name="ic_fluent_fps_30_20_regular" unicode="&#x691;" arabic-form="isolated" 
d="M313 450q-26 0 -44.5 -18.5t-18.5 -44.5v-74q0 -26 18.5 -44.5t44 -18.5t44 18.5t18.5 44.5v75q0 25 -18.5 43.5t-44.5 18.5h1zM313 275q-16 0 -27 11t-11 27v75q0 15 11 26t26.5 11t26.5 -11t11 -27v-74q0 -16 -11 -27t-27 -11h1zM88 200q-6 0 -9.5 -3.5t-3.5 -8.5v-125
q0 -6 3.5 -9.5t9 -3.5t9 3.5t3.5 9.5v37h38q5 0 8.5 3.5t3.5 9t-3.5 9t-8.5 3.5h-38v50h63q5 0 8.5 3.5t3.5 9t-3.5 9t-8.5 3.5h-75zM213 200q-6 0 -9.5 -3.5t-3.5 -8.5v-125q0 -6 3.5 -9.5t9 -3.5t9 3.5t3.5 9.5v37h25q21 0 35.5 14.5t14.5 35.5t-14.5 35.5t-35.5 14.5h-37
zM250 125h-25v50h25q10 0 17.5 -7.5t7.5 -17.5t-7.5 -17.5t-17.5 -7.5zM325 156q0 18 13 31t31 13h19q15 0 26 -11t11 -26v0q0 -6 -3.5 -9.5t-9 -3.5t-9 3.5t-3.5 8.5v1q0 5 -3.5 8.5t-8.5 3.5h-19q-8 0 -13.5 -5.5t-5.5 -13.5t5.5 -13.5t13.5 -4.5h12q18 0 31 -13t13 -31
t-13 -31t-31 -13h-19q-15 0 -26 11t-11 26v1q0 5 3.5 8.5t9 3.5t9 -3.5t3.5 -9.5v0q0 -5 3.5 -8.5t8.5 -3.5h19q8 0 13.5 5.5t5.5 13.5t-5.5 13.5t-13.5 5.5h-12q-18 0 -31 12.5t-13 30.5zM169 425h-13q-9 0 -16.5 -4.5t-11.5 -12.5t-11 -8t-11 5t-1 11q6 16 20 25t31 9h13
q18 0 32.5 -10.5t20.5 -27t1 -34t-19 -28.5q14 -11 19 -28.5t-1 -34t-20.5 -27t-32.5 -10.5h-13q-16 0 -30.5 9t-20.5 25q-3 6 1 11t11 5t11 -8t11.5 -12.5t16.5 -4.5h13q13 0 22 9t9 22t-9 22t-22 10h-6q-6 -1 -9.5 3t-3.5 9t3.5 8.5t8.5 4.5h7q13 0 22 9t9 22t-9 22t-22 9
z" />
    <glyph glyph-name="ic_fluent_fps_30_24_regular" unicode="&#x691;" arabic-form="final" 
d="M169 406h-5q-14 0 -23 -11q-7 -10 -15.5 -10t-13.5 6.5t-1 14.5q8 14 22 23t31 9h5q19 0 34 -10.5t22 -28t2.5 -35.5t-17.5 -31q13 -12 17.5 -30t-2.5 -35.5t-22 -28t-34 -10.5h-5q-17 0 -31 8.5t-22 23.5q-4 7 1 13.5t13.5 6.5t15.5 -9q9 -12 23 -12h5q12 0 20.5 8.5
t8.5 20.5t-8.5 20.5t-20.5 8.5h-2q-7 0 -11.5 4.5t-4.5 11t4.5 11t11.5 4.5h2q12 0 20.5 8.5t8.5 20t-8.5 20t-20.5 8.5zM292 141q0 19 -14 32.5t-33 14.5l-34 -1q-5 0 -9 -4.5t-4 -10.5v-117q1 -6 5.5 -9.5t10.5 -3.5h2q5 1 9 5t4 10v37h19q18 1 31 14.5t13 32.5zM229 156
h16h2q6 -1 10 -5.5t3.5 -11t-5 -10.5t-10.5 -4h-16v31zM417 146q0 17 -12.5 29t-29.5 13l-16 -1q-18 -1 -30 -14t-11.5 -31t13.5 -30.5t31 -12.5h12q5 -1 8.5 -5t3 -9t-4 -8.5t-9.5 -3.5h-14q-4 1 -6.5 4t-2.5 6v2q-1 7 -6 10.5t-11 3t-10 -5t-4 -10.5q0 -17 12 -29t29 -12
h17q17 1 29 14.5t11.5 31t-13.5 30t-31 12.5h-12q-5 1 -8 5t-3 9t4 8.5t9 3.5h15q4 -1 6 -3.5t2 -6.5l1 -2q0 -6 5 -10t11 -3.5t10.5 5t4.5 10.5zM177 172q0 6 -4.5 11t-11.5 5l-64 -1q-6 0 -10 -4.5t-4 -10.5v-116q1 -6 5.5 -10t10.5 -4h2q6 1 10 5.5t4 10.5v36h38
q6 1 10 5.5t3.5 11t-5 10.5t-10.5 4h-36v31h49q5 1 9 5.5t4 10.5zM375 379q-2 24 -20 41t-42 17h-4q-25 -1 -42 -19t-17 -43v-87q2 -24 18.5 -40.5t40.5 -18.5h7q25 2 42 20t17 43v87zM312 406h1q13 0 22 -9t9 -22v-86q-1 -12 -9 -19.5t-19 -8.5h-7q-12 1 -20 10t-8 21v86
q2 12 10.5 20t20.5 8z" />
    <glyph glyph-name="ic_fluent_fps_30_28_regular" unicode="&#x6a9;" arabic-form="isolated" 
d="M313 446q-26 0 -44.5 -18t-18.5 -44v-89q0 -17 8.5 -31.5t23 -23t31 -8.5t31 8.5t23 23t8.5 31.5v89q0 26 -18.5 44t-44.5 18h1zM313 259q-15 0 -25.5 10.5t-10.5 25.5v89q0 15 10.5 25.5t25 10.5t25 -10.5t10.5 -25.5v-89q0 -15 -10.5 -25.5t-24.5 -10.5zM321 146
q0 17 12.5 29.5t29.5 12.5h21q15 0 25.5 -10.5t10.5 -25.5q0 -6 -4 -10t-9.5 -4t-9.5 4t-4 8.5t-2.5 7.5t-6.5 3h-21q-6 0 -10.5 -4.5t-4.5 -10.5v-3q0 -8 5.5 -13t12.5 -5h9q18 0 31.5 -13t13.5 -32v-2q0 -18 -12.5 -30t-29.5 -12h-12q-18 0 -31.5 13t-13.5 31q0 6 4 10
t9.5 4t9.5 -4t4 -10.5t5.5 -11.5t12.5 -6h12q6 1 10.5 5t4.5 11v2q0 8 -5.5 13t-12.5 5h-9q-18 0 -31.5 13t-13.5 32v3zM103 188q-6 -1 -10 -4.5t-4 -9.5v-125q0 -5 4 -9t9.5 -4t9.5 4t4 9v49h31q6 0 10 4t4 9.5t-4 9.5t-10 4h-31v36h49q6 0 10 4t4 9.5t-4 9.5t-10 4h-62z
M205 174q0 6 4 9.5t10 3.5h40q18 1 31.5 -12.5t13.5 -32t-13.5 -31.5t-31.5 -13h-27v-49q0 -5 -4 -9t-9.5 -4t-9.5 4t-4 9v125zM232 125h27q10 0 15.5 9t0 18t-15.5 9h-27v-36zM172 420h-5q-9 0 -17 -5t-12.5 -13.5t-12 -8.5t-12 5.5t-1.5 11.5q7 17 22 26.5t33 9.5h5
q19 0 34.5 -11t22 -29t1.5 -36.5t-20 -30.5q15 -12 20 -30.5t-1.5 -36.5t-22 -29t-34.5 -11h-5q-18 0 -33 10t-22 26q-3 7 1.5 12.5t12 5.5t12 -8.5t12.5 -13.5t17 -5h5q14 0 23.5 10t9.5 23.5t-9.5 23.5t-23.5 10h-2q-6 0 -10 4t-4 9.5t4 9.5t10 4h2q9 0 16.5 4.5t12 12
t4.5 16.5t-4.5 17t-12 12.5t-16.5 4.5z" />
    <glyph glyph-name="ic_fluent_fps_30_48_regular" unicode="&#x6a9;" arabic-form="final" 
d="M313 438q-26 0 -44.5 -18.5t-18.5 -44.5v-83q0 -26 18.5 -44.5t44 -18.5t44 18.5t18.5 44.5v83q0 26 -18.5 44.5t-44.5 18.5h1zM313 255q-16 0 -26.5 11t-10.5 26v83q0 10 5 18.5t13.5 13t18 4.5t18 -4.5t13.5 -13t5 -18.5v-83q0 -15 -10.5 -26t-25.5 -11zM96 188
q-5 0 -9 -4t-4 -10v-120q0 -5 4 -9t9.5 -4t9 4t3.5 9v45h45q7 0 11 6.5t0 13t-11 6.5h-45v36h55q8 0 11.5 6.5t0 13.5t-11.5 7h-68zM216 188q-5 0 -9 -4t-4 -10v-120q0 -5 4 -9t9.5 -4t9 4t3.5 9v45h24q18 0 31 13t13 31.5t-13 31t-31 12.5h-37v1zM253 125h-24v36h24
q7 0 12.5 -5t5.5 -12.5t-5.5 -13t-12.5 -5.5zM344 144q0 7 5 12t12 5h17q5 0 9 -3.5t4 -9t3.5 -9.5t9 -4t9.5 4t4 9q0 17 -11.5 28t-27.5 12h-17q-12 0 -22 -6t-16 -16t-6 -22t6 -22t16 -15.5t22 -5.5h13q7 0 11.5 -5t4.5 -11.5t-4.5 -11.5t-11.5 -5h-17q-6 0 -9.5 3.5
t-3.5 9t-4 9.5t-9.5 4t-9 -4t-3.5 -9q0 -16 11.5 -27.5t27.5 -11.5h17q18 0 30.5 12.5t12.5 30t-12.5 30t-30.5 12.5h-13q-7 0 -12 5t-5 12zM203 379q0 -13 -10.5 -23t-25.5 -10q-6 0 -9.5 -3.5t-3.5 -9t3.5 -9.5t9.5 -4q15 0 25.5 -9.5t10.5 -22.5t-10.5 -23t-25.5 -10
q-13 0 -22.5 7t-12.5 19q-2 4 -5.5 7.5t-8.5 3.5t-9.5 -4.5t-3.5 -10.5q4 -21 22 -34.5t40 -13.5q26 0 44 17t18 42q0 13 -6 25t-17 20q11 9 17 20.5t6 25.5q0 24 -18 41t-44 17q-22 1 -40 -13t-22 -34q-1 -6 3.5 -10.5t9.5 -4.5t8.5 3t5.5 8q3 11 12.5 18t22.5 7
q15 0 25.5 -9.5t10.5 -22.5z" />
    <glyph glyph-name="ic_fluent_fps_60_16_regular" unicode="&#x6a9;" arabic-form="initial" 
d="M156 438q-13 0 -22 -9.5t-9 -22.5v-39q18 10 39 7.5t36 -17.5t18 -36t-7.5 -39.5t-30 -26.5t-40 -2.5t-33.5 22t-13 37.5v94q0 26 18 44.5t44 18.5t44.5 -18.5t18.5 -44.5q0 -6 -4.5 -10.5t-11 -4.5t-11.5 4.5t-5 10.5q1 13 -8.5 22.5t-22.5 9.5zM156 281q13 0 22.5 9.5
t9.5 22t-9.5 22t-22.5 9.5t-22 -9.5t-9 -22t9 -22t22 -9.5zM47 188q-7 -1 -11.5 -5.5t-4.5 -10.5v-125q0 -7 4.5 -11.5t11 -4.5t11.5 4.5t5 11.5v47h46q7 0 11.5 4.5t4.5 11t-4.5 11t-11.5 4.5h-46v31h78q6 0 10.5 4.5t4.5 11t-4.5 11.5t-10.5 5h-94zM203 188q-6 0 -11 -5
t-5 -11v-125q0 -7 5 -11.5t11.5 -4.5t11 4.5t4.5 11.5v31h39q22 0 38.5 16t16.5 38.5t-16.5 39t-38.5 16.5h-55zM258 109h-39v47h39q10 0 16.5 -6.5t6.5 -16.5t-6.5 -17t-16.5 -7zM344 141q0 19 13.5 33t33.5 14h62q7 0 11.5 -5t4.5 -11.5t-4.5 -11t-11.5 -4.5h-62
q-7 0 -11.5 -4.5t-4.5 -11t4.5 -11t11.5 -4.5h31q19 0 33 -13.5t14 -33t-14 -33.5t-33 -14h-63q-6 0 -10.5 4.5t-4.5 11t4.5 11.5t10.5 4h63q6 1 11 5.5t5 11t-5 11t-11 4.5h-31q-20 0 -33.5 13.5t-13.5 33.5zM250 406q0 26 18.5 44.5t44 18.5t44 -18.5t18.5 -44.5v-93
q0 -26 -18.5 -44.5t-44 -18.5t-44 18.5t-18.5 44.5v93zM344 406q0 13 -9.5 22.5t-22 9.5t-22 -9.5t-9.5 -22.5v-93q0 -13 9.5 -22.5t22 -9.5t22 9.5t9.5 22.5v93z" />
    <glyph glyph-name="ic_fluent_fps_60_20_regular" unicode="&#x6a9;" arabic-form="medial" 
d="M313 450q-26 0 -44.5 -18.5t-18.5 -44.5v-74q0 -26 18.5 -44.5t44 -18.5t44 18.5t18.5 44.5v75q0 25 -18.5 43.5t-44.5 18.5h1zM313 275q-16 0 -27 11t-11 27v75q0 15 11 26t26.5 11t26.5 -11t11 -27v-74q0 -16 -11 -27t-27 -11h1zM88 200q-6 0 -9.5 -3.5t-3.5 -8.5v-125
q0 -6 3.5 -9.5t9 -3.5t9 3.5t3.5 9.5v37h38q5 0 8.5 3.5t3.5 9t-3.5 9t-8.5 3.5h-38v50h63q5 0 8.5 3.5t3.5 9t-3.5 9t-8.5 3.5h-75zM213 200q-6 0 -9.5 -3.5t-3.5 -8.5v-125q0 -6 3.5 -9.5t9 -3.5t9 3.5t3.5 9.5v37h25q21 0 35.5 14.5t14.5 35.5t-14.5 35.5t-35.5 14.5h-37
zM250 125h-25v50h25q10 0 17.5 -7.5t7.5 -17.5t-7.5 -17.5t-17.5 -7.5zM325 156q0 18 13 31t31 13h19q15 0 26 -11t11 -26v0q0 -6 -3.5 -9.5t-9 -3.5t-9 3.5t-3.5 8.5v1q0 5 -3.5 8.5t-8.5 3.5h-19q-8 0 -13.5 -5.5t-5.5 -13.5t5.5 -13.5t13.5 -4.5h12q18 0 31 -13t13 -31
t-13 -31t-31 -13h-19q-15 0 -26 11t-11 26v1q0 5 3.5 8.5t9 3.5t9 -3.5t3.5 -9.5v0q0 -5 3.5 -8.5t8.5 -3.5h19q8 0 13.5 5.5t5.5 13.5t-5.5 13.5t-13.5 5.5h-12q-18 0 -31 12.5t-13 30.5zM100 388v-75q0 -22 13.5 -39t34.5 -22t41 4t29.5 28.5t5 41t-21 35t-38.5 14.5
t-39 -13v26q0 15 11 26t26.5 11t26.5 -11t11 -27q0 -5 3.5 -8.5t9 -3.5t9 3.5t3.5 8.5q0 26 -18.5 44.5t-44 18.5t-44 -18.5t-18.5 -44.5v1zM163 275q-16 0 -27 11t-11 26.5t11 26.5t26.5 11t26.5 -11t11 -26.5t-11 -26.5t-27 -11h1z" />
    <glyph glyph-name="ic_fluent_fps_60_24_regular" unicode="&#x6af;" arabic-form="isolated" 
d="M245 188q19 0 32.5 -13.5t14 -32.5t-12 -33t-31.5 -15h-19v-37q0 -6 -4 -10t-9 -5h-2q-6 0 -10.5 3.5t-5.5 9.5v117q0 6 4 10.5t9 4.5zM375 188q17 -1 29.5 -13t12.5 -29q0 -6 -4.5 -10.5t-10.5 -5t-11 3.5t-5 10l-1 2q0 4 -2 6.5t-6 3.5h-15q-5 0 -9 -3.5t-4 -8.5t3 -9
t8 -5h12q18 0 31 -12.5t13.5 -30t-11.5 -31t-29 -14.5h-17q-17 0 -29 12t-12 29q0 6 4 10.5t10 5t11 -3t6 -10.5v-2q0 -3 2.5 -6t6.5 -4h14q6 0 9.5 3.5t4 8.5t-3 9t-8.5 5h-12q-18 0 -31 12.5t-13.5 30.5t11.5 31t30 14zM161 188q7 -1 11.5 -5t4.5 -10t-3.5 -11t-9.5 -6
h-49v-31h36q6 0 10.5 -4t5 -10.5t-3.5 -11t-10 -5.5h-38v-36q0 -6 -4 -10.5t-10 -5.5h-2q-6 0 -10.5 4t-5.5 10v116q0 6 4 10.5t10 4.5zM245 156h-16v-31h16q6 0 10.5 4t5 10.5t-3.5 11t-10 5.5h-2zM167 438q24 0 42.5 -17.5t19.5 -41.5v-8q0 -6 -4 -10.5t-10.5 -5t-11 3.5
t-5.5 10v9q-1 12 -10 20t-21 8t-21 -8t-10 -20l-1 -32q19 10 39.5 7.5t35.5 -17t18.5 -35.5t-6.5 -39t-29 -27t-39.5 -4.5t-34.5 20.5t-15 37v87q0 26 18.5 44t44.5 18v1zM313 437q24 0 42 -17t20 -41v-87q0 -25 -17 -43t-42 -20h-7q-24 2 -40.5 18.5t-18.5 40.5v87
q0 25 17 43t42 19h4zM167 323q-12 0 -21 -8t-10 -20l-1 -3q0 -10 5.5 -18t14 -11.5t18 -1.5t16.5 8.5t8.5 16t-2 18t-11.5 14t-17 5.5zM313 406h-1q-12 0 -20.5 -8t-10.5 -20v-86q0 -13 8 -21.5t20 -9.5h7q11 1 19 8.5t9 19.5v86q0 13 -9 22t-22 9z" />
    <glyph glyph-name="ic_fluent_fps_60_28_regular" unicode="&#x6af;" arabic-form="final" 
d="M313 446q-26 0 -44.5 -18t-18.5 -44v-89q0 -17 8.5 -31.5t23 -23t31 -8.5t31 8.5t23 23t8.5 31.5v89q0 26 -18.5 44t-44.5 18h1zM348 295q0 -15 -10.5 -25.5t-25 -10.5t-25 10.5t-10.5 25.5v89q0 15 10.5 25.5t25 10.5t25 -10.5t10.5 -25.5v-89zM107 295v89q0 26 18.5 44
t44.5 18t44 -18t18 -44q0 -6 -4 -9.5t-9.5 -3.5t-9.5 3.5t-4 9.5q0 9 -4.5 17.5t-13 13.5t-18 5t-18 -5t-13 -13.5t-4.5 -17.5v-38q18 12 39.5 11t37.5 -15.5t20 -35.5t-6 -40t-29.5 -28t-40.5 -4t-34.5 22t-13.5 39zM134 295q0 -10 4.5 -18.5t13 -13t18 -4.5t18 4.5t13 13
t4.5 18.5q0 14 -10.5 24.5t-25 10.5t-25 -10.5t-10.5 -24.5zM363 188q-17 0 -29.5 -12.5t-12.5 -29.5v-3q0 -19 13.5 -32t31.5 -13h9q7 0 12.5 -5t5.5 -13v-2q0 -7 -4.5 -11t-10.5 -4h-12q-7 -1 -12.5 4.5t-5.5 12t-4 10.5t-9.5 4t-9.5 -4t-4 -10q0 -18 13.5 -31t31.5 -13
h12q17 0 29.5 12t12.5 30v2q0 19 -13.5 32t-31.5 13h-9q-7 0 -12.5 5t-5.5 13v3q0 6 4.5 10.5t10.5 4.5h21q4 0 6.5 -3t2.5 -7.5t4 -8.5t9.5 -4t9.5 4t4 10q0 15 -10.5 25t-25.5 11h-21zM89 174q0 6 4 9.5t10 3.5h62q6 0 10 -3.5t4 -9t-4 -9.5t-10 -4h-49v-36h31q6 0 10 -4
t4 -9.5t-4 -9.5t-10 -4h-31v-49q0 -5 -4 -9t-9.5 -4t-9.5 4t-4 9v125zM219 188q-6 -1 -10 -4.5t-4 -9.5v-125q0 -5 4 -9t9.5 -4t9.5 4t4 9v49h27q18 0 31.5 13t13.5 31.5t-13.5 31.5t-31.5 13h-40v1zM259 125h-27v36h27q10 0 15.5 -9t0 -18t-15.5 -9z" />
    <glyph glyph-name="ic_fluent_fps_60_48_regular" unicode="&#x6af;" arabic-form="initial" 
d="M250 375q0 26 18.5 44t44 18.5t44 -18t18.5 -44.5v-83q0 -26 -18.5 -44.5t-44 -18.5t-44 18.5t-18.5 44.5v83zM349 375q0 10 -5 18.5t-13.5 13t-18 4.5t-18 -4.5t-13.5 -13t-5 -18.5v-83q0 -10 5 -18.5t13.5 -13.5t18 -5t18 5t13.5 13.5t5 18.5v83zM104 287
q2 -21 16.5 -37t35 -20t39.5 6t28 29.5t4.5 40t-21 34t-37.5 14.5t-39 -12v33q0 15 11 25.5t26 10.5t25.5 -10.5t10.5 -25.5q0 -5 4 -9t9.5 -4t9 4t3.5 9q0 26 -18 44t-44 18t-44.5 -18t-18.5 -44v-88zM167 255q-10 0 -18.5 5t-13.5 13.5t-5 18t5 18t13.5 13.5t18.5 5
q15 0 25.5 -10.5t10.5 -25.5t-10.5 -26t-25.5 -11zM96 188q-5 0 -9 -4t-4 -10v-120q0 -5 4 -9t9.5 -4t9 4t3.5 9v45h45q7 0 11 6.5t0 13t-11 6.5h-45v36h55q8 0 11.5 6.5t0 13.5t-11.5 7h-68zM216 188q-5 0 -9 -4t-4 -10v-120q0 -5 4 -9t9.5 -4t9 4t3.5 9v45h24q18 0 31 13
t13 31.5t-13 31t-31 12.5h-37v1zM253 125h-24v36h24q7 0 12.5 -5t5.5 -12.5t-5.5 -13t-12.5 -5.5zM344 144q0 7 5 12t12 5h17q5 0 9 -3.5t4 -9t3.5 -9.5t9 -4t9.5 4t4 9q0 17 -11.5 28t-27.5 12h-17q-12 0 -22 -6t-16 -16t-6 -22t6 -22t16 -15.5t22 -5.5h13q7 0 11.5 -5
t4.5 -11.5t-4.5 -11.5t-11.5 -5h-17q-6 0 -9.5 3.5t-3.5 9t-4 9.5t-9.5 4t-9 -4t-3.5 -9q0 -16 11.5 -27.5t27.5 -11.5h17q18 0 30.5 12.5t12.5 30t-12.5 30t-30.5 12.5h-13q-7 0 -12 5t-5 12z" />
    <glyph glyph-name="ic_fluent_full_screen_24_regular" unicode="&#x6af;" arabic-form="medial" 
d="M94 380q0 11 7.5 18.5t18.5 7.5h41q7 0 11.5 4.5t4.5 11t-4.5 11.5t-11.5 5h-41q-24 0 -40.5 -17t-17.5 -41v-41q1 -7 5.5 -11.5t11 -4.5t11 4.5t4.5 11.5v41zM94 120q0 -11 7.5 -18.5t18.5 -7.5h41q7 0 11.5 -4.5t4.5 -11t-4.5 -11t-11.5 -4.5h-41q-24 -1 -41 16t-16 41
v41q-1 7 4 11.5t11.5 4.5t11 -4.5t4.5 -11.5v-41zM380 406q11 0 18.5 -7.5t7.5 -18.5v-41q0 -7 4.5 -11.5t11 -4.5t11.5 4.5t5 11.5v41q0 24 -17 41t-41 17h-41q-7 0 -11.5 -5t-4.5 -11.5t4.5 -11t11.5 -4.5h41zM406 120q0 -11 -7.5 -18.5t-18.5 -7.5h-41q-7 0 -11.5 -4.5
t-4.5 -11t4.5 -11t11.5 -4.5h41q24 -1 41 16t16 41v41q1 7 -4 11.5t-11.5 4.5t-11 -4.5t-4.5 -11.5v-41z" />
    <glyph glyph-name="ic_fluent_home_person_20_regular" unicode="&#x6b3;" arabic-form="isolated" 
d="M225 440q11 10 25 10t25 -10l138 -123q12 -11 12 -28v-8q-12 11 -28 16l-139 125q-3 3 -8 3t-8 -3l-138 -124q-4 -4 -4 -9v-176q0 -6 3.5 -9.5t9.5 -3.5h62q5 0 9 3.5t4 9.5v87q0 16 10.5 27t26.5 11h50q14 0 25 -10q-1 -24 13 -44v-9q-14 0 -25 -5v30q0 5 -4 9t-9 4h-50
q-5 0 -9 -4t-4 -9v-87q1 -16 -10 -27t-27 -11h-62q-16 0 -27 11t-11 27v176q0 17 12 28zM400 268q12 -6 19 -18t7.5 -25.5t-6.5 -25.5t-19 -18.5t-25.5 -6t-25.5 7.5q-17 10 -22 30t5 37.5t29.5 23t37.5 -4.5zM438 150q15 0 26 -11t11 -26q0 -42 -30 -66q-28 -22 -70 -22
t-70 22q-25 20 -29 53q-1 6 -1 13q0 15 11 26t26 11h126z" />
    <glyph glyph-name="ic_fluent_image_off_20_regular" unicode="&#x6b3;" arabic-form="final" 
d="M71 446q-3 4 -8.5 4t-9 -3.5t-3.5 -9t4 -8.5l35 -36q-14 -19 -14 -43v-200q0 -31 22 -53t53 -22h200q24 0 43 14l36 -35q3 -4 8.5 -4t9 3.5t3.5 9t-4 8.5zM235 247q-6 -3 -11 -8l-117 -114q-7 11 -7 25v200q0 14 7 25zM150 100q-14 0 -25 7l116 114q4 4 9 4t9 -4
l116 -114q-11 -7 -25 -7h-200zM400 350v-197l22 -22q3 9 3 19v200q0 31 -22 53t-53 22h-200q-10 0 -19 -3l22 -22h197q21 0 35.5 -14.5t14.5 -35.5zM350 313q0 15 -11 26t-26.5 11t-26.5 -11t-11 -26.5t11 -26.5t26.5 -11t26.5 11t11 27zM325 313q0 -6 -3.5 -9.5t-9 -3.5
t-9 3.5t-3.5 9t3.5 9t9 3.5t9 -3.5t3.5 -8.5z" />
    <glyph glyph-name="ic_fluent_lasso_20_regular" unicode="&#x6b3;" arabic-form="initial" 
d="M204 445q46 11 92 0q5 -1 7.5 -5.5t1.5 -9.5t-5.5 -8t-9.5 -2q-40 10 -80 0q-5 -1 -9.5 2t-5.5 8t1.5 9.5t7.5 5.5zM162 416q3 -4 1.5 -9t-5.5 -8q-35 -22 -57 -57q-4 -6 -11 -6t-10.5 6.5t0.5 12.5q25 40 65 65q4 3 9 1.5t8 -5.5zM338 416q3 4 8 5.5t9 -1.5
q40 -25 65 -65q3 -4 1.5 -9t-5.5 -7.5t-9 -1.5t-8 5q-22 35 -57 57q-4 3 -5.5 8t1.5 9zM70 305q5 -1 8 -5.5t2 -9.5q-10 -40 0 -80q1 -7 -4 -12t-12 -3t-9 9q-11 46 0 92q1 5 5.5 7.5t9.5 1.5zM430 305q5 1 9 -1.5t6 -7.5q10 -46 0 -92q-2 -5 -6 -7.5t-9 -1.5t-8 5.5t-2 9.5
q10 40 0 80q-1 5 2 9.5t8 5.5zM84 162q4 3 9 1.5t8 -5.5q22 -35 57 -57q6 -4 6 -11t-6.5 -10.5t-12.5 0.5q-40 25 -65 65q-3 4 -1.5 9t5.5 8zM423 144q4 6 0.5 12.5t-11 6.5t-10.5 -7h-1l-8 -12q-13 -17 -29 -30q-46 36 -101 36q-28 0 -45.5 -14.5t-17.5 -35.5t17.5 -35.5
t45.5 -14.5q54 0 100 31l3 -2q19 -20 33 -43l2 -4q4 -7 11 -7.5t11 6t1 12.5l-2 2q0 2 2 -2l-3 5q-15 27 -37 48l-1 1q17 14 30 32l10 14v1zM263 125q43 0 80 -27q-37 -23 -80 -23q-20 0 -30 9q-8 7 -8 16t8 16q10 9 30 9z" />
    <glyph glyph-name="ic_fluent_leaf_three_16_regular" unicode="&#x6b3;" arabic-form="medial" 
d="M281 469h89q15 0 25.5 -10.5t10.5 -25.5v-89q0 -16 -4 -31h28q16 0 27.5 -11.5t11.5 -27.5v-102q0 -41 -21.5 -75t-58 -51.5t-77 -13t-72.5 29.5l-26 -26q-4 -5 -10.5 -5t-11 4.5t-4.5 11t4 11.5l26 26q-17 21 -24 47q-29 -9 -58.5 -4t-53.5 22.5t-37.5 44t-13.5 56.5v89
q0 15 10.5 25.5t25.5 10.5h93q11 41 44.5 67.5t76.5 26.5zM339 161l-76 -77q24 -18 55 -21t59 11t44.5 40.5t15.5 57.5v102q0 3 -2 5t-5 2h-102q-31 0 -57.5 -16t-40.5 -44t-11 -59t22 -56l76 77q5 5 11.5 5t11 -5t4.5 -11.5t-5 -10.5zM370 313q5 15 5 31v89q0 4 -5 5h-89
q-31 -1 -56 -19.5t-34 -48.5q27 -8 48 -26t32 -44q27 13 57 12h42v1zM244 284q-11 27 -35 43.5t-53 16.5h-89q-4 0 -5 -5v-89q0 -23 11 -43.5t29.5 -33.5t41 -16t44.5 5q-1 16 1 33l-59 60q-7 6 -4.5 14.5t11 11t15.5 -3.5l48 -48q14 33 44 55z" />
    <glyph glyph-name="ic_fluent_leaf_three_20_regular" unicode="&#x6b1;" arabic-form="isolated" 
d="M400 325q0 -13 -3 -25h20q13 0 23 -10t10 -23v-92q0 -36 -19.5 -66.5t-52 -46t-68.5 -11.5t-64 27l-25 -24q-3 -4 -8.5 -4t-9 3.5t-3.5 9t4 8.5l24 25q-12 15 -19 34q-29 -8 -57.5 -2.5t-52 23t-36.5 44t-13 55.5v92q0 13 10 23t23 10h77q15 34 46.5 54.5t68.5 20.5h92
q13 0 23 -10t10 -23v-92zM188 374q35 -3 63 -24.5t41 -54.5q16 5 33 5h47q3 12 3 25v92q0 3 -2.5 5.5t-5.5 2.5h-92q-27 0 -50.5 -13.5t-36.5 -37.5zM264 96q22 -18 50.5 -20.5t54.5 10t41 36.5t15 53v92q0 3 -2.5 5.5t-5.5 2.5h-92q-29 0 -53 -15t-36.5 -41t-10 -54.5
t20.5 -50.5l83 82q3 4 8.5 4t9 -3.5t3.5 -9t-4 -8.5zM200 175q0 15 3 29l-62 62q-4 4 -4 9t4 9t9 4t9 -4l54 -54q18 37 55 56q-11 29 -36.5 46.5t-56.5 17.5h-92q-3 0 -5.5 -2.5t-2.5 -5.5v-92q0 -23 10.5 -44t29 -35.5t41.5 -19t46 2.5q-2 10 -2 21z" />
    <glyph glyph-name="ic_fluent_leaf_three_24_regular" unicode="&#x6b1;" arabic-form="final" 
d="M396 344q0 -16 -4 -31h33q14 0 23.5 -10t9.5 -24v-102q0 -39 -20.5 -72t-55.5 -50t-74 -12.5t-69 28.5l-25 -25q-6 -7 -15 -4.5t-11.5 11.5t4.5 15l25 25q-13 16 -20 35q-28 -6 -55 0.5t-49 24.5t-34 43.5t-12 53.5v93q0 14 9 23t22 9h93q10 37 41 60t69 23h85
q12 0 21 -8.5t9 -21.5v-84zM203 371q26 -6 47 -23t33 -41q20 6 40 6h36q6 14 6 31v83h-84q-26 0 -48 -15.5t-30 -40.5zM261 93q24 -17 53.5 -19.5t55.5 10.5t41.5 38.5t15.5 54.5v102q0 2 -2 2h-102q-30 0 -55 -15.5t-38 -41.5t-10.5 -55.5t19.5 -53.5l89 89q6 7 15 4.5
t11 -11.5t-4 -15zM188 177q0 18 4 36l-57 57q-7 7 -4.5 15.5t11.5 11t15 -4.5l48 -48q18 32 50 50q-13 23 -35 36.5t-48 13.5h-94v-94q0 -21 9 -40t25 -32t36 -18.5t41 -1.5q-1 9 -2 19h1z" />
    <glyph glyph-name="ic_fluent_mic_sync_20_regular" unicode="&#x6b1;" arabic-form="initial" 
d="M230 175q-32 -2 -56 20t-24 55v125q0 31 22 53t53 22t53 -22t22 -53v-115q-14 -7 -25 -17v7v125q0 21 -14.5 35.5t-35.5 14.5t-35.5 -14.5t-14.5 -35.5v-125q0 -12 5.5 -23t15.5 -18t22 -8.5t23 2.5q-7 -13 -11 -28zM225 134q1 -28 12 -54v-17q0 -6 -3.5 -9.5t-8.5 -3.5
t-8.5 3.5t-4.5 9.5v50q-34 3 -63 22.5t-45.5 49.5t-16.5 65q1 5 4.5 9t8.5 4t8.5 -4t3.5 -9q1 -31 16 -56.5t40.5 -41t56.5 -15.5v-3zM475 138q0 -31 -15 -57t-41 -41t-56.5 -15t-56.5 15t-41 41t-15 56.5t15 56.5t41 41t56.5 15t56.5 -15t41 -41t15 -56zM313 213
q-6 0 -9.5 -4t-3.5 -9v-37q0 -6 3.5 -9.5t8.5 -3.5h38q5 0 8.5 3.5t4 9t-3.5 9t-9 3.5h-12q15 8 31.5 5.5t28.5 -13.5q4 -4 9 -4t8.5 4t3.5 9t-3 8q-18 18 -43.5 21.5t-47.5 -9.5v4q0 5 -3.5 9t-8.5 4zM334 74q16 -6 33.5 -5t32.5 10v-4q0 -5 3.5 -8.5t9 -3.5t9 3.5t3.5 8.5
v38q0 5 -3.5 8.5t-8.5 3.5h-38q-5 0 -9 -3.5t-4 -9t4 -9t9 -3.5h12q-15 -8 -31.5 -5.5t-28.5 13.5q-4 4 -9 4t-8.5 -4t-3.5 -9t3 -8q11 -11 25 -17z" />
    <glyph glyph-name="ic_fluent_notebook_subsection_20_regular" unicode="&#x6b1;" arabic-form="medial" 
d="M100 363q0 36 25.5 61.5t62.5 25.5h62q15 0 28 -6.5t22 -18.5h-112q-26 0 -44.5 -18.5t-18.5 -44.5v-237q-12 9 -18.5 22t-6.5 28v188zM336 450h2q4 0 7.5 -3.5t4.5 -9.5v-372q0 -6 -3.5 -10.5t-8.5 -4.5t-8.5 3.5t-4.5 9.5v12h-125q-21 0 -35.5 14.5t-14.5 35.5v225
q0 21 14.5 35.5t35.5 14.5h125v35q0 6 3 10t8 5zM200 375q-10 0 -17.5 -7.5t-7.5 -17.5v-225q0 -10 7.5 -17.5t17.5 -7.5h125v275h-125z" />
    <glyph glyph-name="ic_fluent_person_circle_20_regular" unicode="&#x6ba;" arabic-form="isolated" 
d="M200 325q0 21 14.5 35.5t35.5 14.5t35.5 -14.5t14.5 -35.5t-14.5 -35.5t-35.5 -14.5t-35.5 14.5t-14.5 35.5zM188 250h125q15 0 26 -11t11 -27q0 -41 -30 -65q-28 -22 -70 -22t-70 22q-30 25 -30 66q0 15 11 26t27 11zM250 450q-54 0 -100 -27t-73 -73t-27 -100t27 -100
t73 -73t100 -27t100 27t73 73t27 100t-27 100t-73 73t-100 27zM75 250q0 48 23.5 88t63.5 63.5t88 23.5t88 -23.5t63.5 -63.5t23.5 -88t-23.5 -88t-63.5 -63.5t-88 -23.5t-88 23.5t-63.5 63.5t-23.5 88z" />
    <glyph glyph-name="ic_fluent_pulse_20_regular" unicode="&#x6ba;" arabic-form="final" 
d="M175 425q4 0 7.5 -2.5t4.5 -6.5l76 -283l63 208q2 9 11 9t12 -8l35 -92h54q5 0 8.5 -3.5t3.5 -9t-3.5 -9t-8.5 -3.5h-63q-9 0 -12 8l-24 65l-65 -214q-1 -4 -4 -6.5t-7.5 -2.5t-7.5 2.5t-5 6.5l-75 282l-38 -132q-1 -4 -4.5 -6.5t-7.5 -2.5h-62q-6 0 -9.5 3.5t-3.5 9
t3.5 9t9.5 3.5h53l47 166q1 4 4.5 6.5t7.5 2.5z" />
    <glyph glyph-name="ic_fluent_pulse_square_24_regular" unicode="&#x6bb;" arabic-form="isolated" 
d="M391 438q19 0 32.5 -14t13.5 -33v-282q0 -19 -13.5 -33t-32.5 -14h-282q-19 0 -33 14t-14 33v282q1 19 14.5 32.5t32.5 13.5h282v1zM391 406h-282q-6 0 -10.5 -4.5t-4.5 -10.5v-282q0 -6 4.5 -10.5t10.5 -4.5h282q6 0 10.5 4.5t4.5 10.5v282q0 6 -4.5 10.5t-10.5 4.5z
M172 260l32 74q4 9 13.5 9.5t14.5 -7.5l51 -126l21 42q3 7 12 8h43q7 0 11.5 -4t4.5 -10t-3.5 -11t-9.5 -6h-35l-32 -64q-4 -8 -13.5 -8.5t-13.5 7.5l-50 124l-21 -49q-4 -8 -13 -10h-43q-7 0 -11.5 4.5t-4.5 10.5t3.5 10.5t9.5 5.5h34l32 74z" />
    <glyph glyph-name="ic_fluent_ribbon_16_regular" unicode="&#x6bb;" arabic-form="final" 
d="M250 469q-50 0 -91 -29.5t-57 -77.5t-1 -96t55 -78v-141q0 -9 8 -13.5t16 -0.5l70 43l70 -43q8 -4 16 0.5t8 13.5v141q40 30 55 78t-1 96t-57 77.5t-91 29.5zM125 313q0 33 17 62t45.5 45.5t62.5 16.5t62.5 -16.5t45.5 -45.5t17 -62.5t-17 -62.5t-45.5 -45.5t-62.5 -16.5
t-62.5 16.5t-45.5 45.5t-17 62v1zM313 169v-95l-55 33q-8 5 -16 0l-54 -33v95q29 -13 62 -13t63 13z" />
    <glyph glyph-name="ic_fluent_rotate_left_24_regular" unicode="&#x6bb;" arabic-form="initial" 
d="M313 396h5v0q35 -1 66 -19q24 -14 38.5 -36.5t14.5 -49t-14.5 -49t-39.5 -36.5q-33 -19 -70 -18h-11q-6 0 -11 4.5t-5 11t5 11t11 4.5h11q29 0 53 13q19 10 29.5 25.5t10.5 34t-10.5 34t-29.5 25.5q-23 13 -49 14h-149l36 -36q4 -5 4.5 -11t-3.5 -10.5t-10.5 -5.5
t-11.5 3l-64 64q-4 5 -4 11.5t4 10.5l64 64q5 4 11 3.5t10 -5.5t4 -11t-4 -10l-36 -36h145zM425 82q7 -4 5 -11.5t-10 -7.5h-337q-8 0 -14.5 6t-5.5 14v191q0 6 5 9t10 0zM342 94l-248 143v-143h248z" />
    <glyph glyph-name="ic_fluent_rotate_right_20_regular" unicode="&#x6bb;" arabic-form="medial" 
d="M190 200q6 0 10 4t4 9t-4 9t-10 4h-9q-33 0 -56 17.5t-23 42.5t22 42.5t53 18.5h128l-31 -30q-4 -3 -4 -8.5t4 -9t8.5 -4t8.5 2.5l55 53q4 4 4 9.5t-4 8.5l-55 53q-4 3 -8.5 3t-8.5 -4t-4 -9t4 -9l31 -30h-124q-44 0 -75 -25.5t-31 -61t31 -61t75 -25.5h9zM400 240v-140
h-254zM405 75q8 0 14 5.5t6 13.5v172q0 4 -3 6.5t-6.5 2.5t-5.5 -1l-330 -181q-4 -2 -5 -6t1.5 -8t8.5 -4h320z" />
    <glyph glyph-name="ic_fluent_rotate_right_24_regular" unicode="&#x6c0;" arabic-form="isolated" 
d="M187 396h-5v0q-35 -1 -66 -19q-25 -14 -39.5 -36.5t-14.5 -49t15 -49t40 -36.5q32 -18 70 -18h11q6 0 11 4.5t5 11t-5 11t-11 4.5h-10q-29 0 -54 13q-19 10 -29.5 25.5t-10.5 34t10.5 34t29.5 25.5q23 13 49 14h149l-36 -36q-4 -5 -4.5 -11t3.5 -10.5t10.5 -5.5t11.5 3
l64 64q4 5 4 11.5t-4 10.5l-64 64q-5 4 -11 3.5t-10 -5.5t-4 -11t4 -10l36 -36h-145zM75 82q-7 -4 -5 -11.5t10 -7.5h337q8 -1 14.5 5.5t5.5 14.5v191q0 6 -5 9t-10 0zM158 94l248 143v-143h-248z" />
    <glyph glyph-name="ic_fluent_share_close_tray_20_regular" unicode="&#x6c0;" arabic-form="final" 
d="M100 400q-10 0 -17.5 -7.5t-7.5 -17.5v-225q0 -10 7.5 -17.5t17.5 -7.5h13q5 0 8.5 -3.5t3.5 -9t-3.5 -9t-9.5 -3.5h-12q-21 0 -35.5 14.5t-14.5 35.5v225q0 21 14.5 35.5t35.5 14.5h300q21 0 35.5 -14.5t14.5 -35.5v-225q0 -21 -14.5 -35.5t-35.5 -14.5h-12
q-6 0 -9.5 3.5t-3.5 9t3.5 9t8.5 3.5h13q10 0 17.5 7.5t7.5 17.5v225q0 10 -7.5 17.5t-17.5 7.5h-300zM250 350q5 0 9 -3.5t4 -8.5v-220l78 78q4 4 9 4t9 -3.5t4 -9t-4 -8.5l-100 -100q-4 -4 -9 -4t-9 4l-100 100q-4 3 -4 8.5t4 9t9 3.5t9 -4l79 -78v220q0 5 3.5 8.5
t8.5 3.5z" />
    <glyph glyph-name="ic_fluent_slide_multiple_24_regular" unicode="&#x671;" arabic-form="isolated" 
d="M115 146h-26q-20 0 -33.5 13.5t-13.5 33.5v187q0 24 16.5 41t40.5 16h250q19 1 33 -13t14 -33v-26h15q20 0 33.5 -14t13.5 -33v-198q0 -20 -13.5 -33.5t-33.5 -13.5h-250q-19 0 -32.5 13.5t-13.5 33.5v26zM73 380v-187q0 -7 4.5 -11.5t11.5 -4.5h26v141q0 19 13.5 33
t32.5 14h204v26q0 6 -5 10.5t-11 4.5h-250q-11 0 -18.5 -7.5t-7.5 -18.5zM146 318v-198q0 -7 4.5 -11.5t10.5 -4.5h250q7 0 11.5 4.5t4.5 11.5v198q0 6 -4.5 10.5t-11.5 4.5h-250q-6 0 -10.5 -4.5t-4.5 -10.5z" />
    <glyph glyph-name="ic_fluent_square_multiple_20_regular" unicode="&#x6c1;" arabic-form="isolated" 
d="M152 400h-26q5 22 22 36t40 14h162q41 0 70.5 -29.5t29.5 -70.5v-162q0 -23 -14 -40t-36 -22v26q11 4 18 14t7 21v163q0 31 -22 53t-53 22h-162q-12 0 -22 -7t-14 -18zM113 375q-26 0 -44.5 -18.5t-18.5 -44.5v-199q0 -26 18.5 -44.5t44.5 -18.5h200q25 0 43.5 18.5
t18.5 43.5v201q0 25 -18.5 43.5t-44.5 18.5h-199zM75 313q0 15 11 26t27 11h200q15 0 26 -11t11 -27v-199q0 -16 -11 -27t-27 -11h-199q-16 0 -27 11t-11 27v200z" />
    <glyph glyph-name="ic_fluent_star_emphasis_20_regular" unicode="&#x6c1;" arabic-form="final" 
d="M228 428q3 6 9 9.5t13 3.5t13 -3.5t9 -9.5l49 -98l108 -16q7 -1 12.5 -5.5t7.5 -11.5t0.5 -14t-7.5 -12l-78 -76l19 -107q1 -7 -1.5 -13.5t-8.5 -11t-13 -5t-13 2.5l-97 51l-97 -51q-6 -3 -13 -2.5t-13 5t-8.5 11t-1.5 13.5l19 107l-78 76q-6 5 -7.5 12t0.5 14t7.5 11.5
t12.5 5.5l108 16zM250 416l-48 -97q-6 -12 -19 -14l-108 -16l78 -76q10 -9 7 -22l-18 -107l96 50q12 6 24 0l96 -50l-18 107q-3 13 7 22l78 76l-108 16q-13 2 -19 14zM110 183q3 -4 2.5 -9.5t-4.5 -8.5l-63 -50q-5 -5 -12 -2t-8 10t5 12l62 50q4 3 9.5 2.5t8.5 -4.5z
M108 372q6 -4 5 -11.5t-8 -10t-13 2.5l-62 50q-4 3 -4.5 8t2.5 9t8 4.5t9 -2.5zM390 183q-3 -4 -2.5 -9.5t4.5 -8.5l63 -50q5 -5 12 -2t8 10t-5 12l-62 50q-4 3 -9.5 2.5t-8.5 -4.5zM392 372q-4 -3 -4 -8t3 -9t8 -4.5t9 2.5l62 50q6 4 5 11.5t-8 10t-12 -2.5z" />
    <glyph glyph-name="ic_fluent_star_line_horizontal_3_20_regular" unicode="&#x671;" arabic-form="final" 
d="M228 428q3 6 9 9.5t13 3.5t13 -3.5t9 -9.5l51 -103h115q5 0 8.5 -3.5t3.5 -9t-3.5 -9t-8.5 -3.5h-115q-7 0 -13 4t-9 10l-51 102l-48 -97q-6 -12 -19 -14l-108 -16l78 -76q10 -9 7 -22l-18 -107l102 53q5 3 10 1.5t7 -6t0.5 -9.5t-5.5 -8l-102 -54q-7 -3 -14 -2.5t-13 5
t-8.5 11t-1.5 13.5l19 107l-78 76q-6 5 -7.5 12t0.5 14t7.5 11.5t12.5 5.5l108 16zM300 238q0 5 3.5 8.5t8.5 3.5h126q5 0 8.5 -3.5t3.5 -9t-3.5 -9t-8.5 -3.5h-125q-6 0 -9.5 3.5t-3.5 8.5v1zM313 175q-6 0 -9.5 -3.5t-3.5 -9t3.5 -9t8.5 -3.5h126q5 0 8.5 3.5t3.5 9
t-3.5 9t-8.5 3.5h-125z" />
    <glyph glyph-name="ic_fluent_star_line_horizontal_3_24_regular" unicode="&#x67b;" arabic-form="isolated" 
d="M275 435q-5 10 -15 14t-20 0t-15 -14l-49 -99l-110 -16q-11 -2 -18 -10.5t-6.5 -19t8.5 -18.5l80 -78l-19 -109q-2 -11 4 -20t16.5 -12t20.5 2l105 56q8 4 8.5 13t-7 14t-15.5 0l-100 -52l18 105q2 14 -8 25l-76 74l105 15q14 2 21 16l47 95l52 -105q4 -9 14 -9h127
q6 0 10.5 4.5t4.5 11t-4.5 11t-10.5 4.5h-117zM302 234q0 7 4.5 11.5t11.5 4.5h125q6 0 10.5 -4.5t4.5 -11t-4.5 -11t-10.5 -4.5h-125q-7 0 -11.5 4.5t-4.5 10.5zM302 151q0 7 4.5 11.5t11.5 4.5h125q6 0 10.5 -4.5t4.5 -11t-4.5 -11.5t-10.5 -5h-125q-7 0 -11.5 5t-4.5 11z
" />
    <glyph glyph-name="ic_fluent_table_add_20_regular" unicode="&#x67b;" arabic-form="final" 
d="M425 363q0 25 -18.5 43.5t-44.5 18.5h-224q-26 0 -44.5 -18.5t-18.5 -44.5v-224q0 -26 18.5 -44.5t43.5 -18.5h103q-6 12 -10 25h-30v75h30q4 13 10 25h-40v100h100v-40q12 6 25 10v30h75v-30q13 -4 25 -10v103zM100 138v37h75v-75h-41q-15 2 -24.5 12.5t-9.5 24.5v1z
M300 400v-75h-100v75h100zM325 400h38h3q15 -2 24.5 -12.5t9.5 -25.5v-37h-75v75zM175 400v-75h-75v41q2 15 12.5 24.5t24.5 9.5h38zM175 300v-100h-75v100h75zM475 138q0 -31 -15 -57t-41 -41t-56.5 -15t-56.5 15t-41 41t-15 56.5t15 56.5t41 41t56.5 15t56.5 -15t41 -41
t15 -56zM375 188q0 5 -3.5 8.5t-9 3.5t-9 -3.5t-3.5 -8.5v-38h-37q-6 0 -9.5 -3.5t-3.5 -9t3.5 -9t8.5 -3.5h38v-37q0 -6 3.5 -9.5t9 -3.5t9 3.5t3.5 9.5v37h38q5 0 8.5 3.5t3.5 9t-3.5 9t-8.5 3.5h-38v38z" />
    <glyph glyph-name="ic_fluent_table_dismiss_20_regular" unicode="&#x67b;" arabic-form="initial" 
d="M425 363q0 25 -18.5 43.5t-44.5 18.5h-224q-26 0 -44.5 -18.5t-18.5 -44.5v-224q0 -26 18.5 -44.5t43.5 -18.5h103q-6 12 -10 25h-30v75h30q4 13 10 25h-40v100h100v-40q12 6 25 10v30h75v-30q13 -4 25 -10v103zM100 138v37h75v-75h-41q-15 2 -24.5 12.5t-9.5 24.5v1z
M300 400v-75h-100v75h100zM325 400h38h3q15 -2 24.5 -12.5t9.5 -25.5v-37h-75v75zM175 400v-75h-75v41q2 15 12.5 24.5t24.5 9.5h38zM175 300v-100h-75v100h75zM475 138q0 -31 -15 -57t-41 -41t-56.5 -15t-56.5 15t-41 41t-15 56.5t15 56.5t41 41t56.5 15t56.5 -15t41 -41
t15 -56zM380 138l29 28q4 4 4 9t-4 9t-9 4t-9 -4l-28 -29l-29 29q-4 4 -9 4t-9 -4t-4 -9t4 -9l29 -28l-29 -29q-4 -4 -4 -9t4 -9t9 -4t9 4l29 29l28 -29q4 -4 9 -4t9 4t4 9t-4 9z" />
    <glyph glyph-name="ic_fluent_table_dismiss_24_regular" unicode="&#x67b;" arabic-form="medial" 
d="M63 370q0 28 19.5 48t47.5 20h240q28 -1 48 -20.5t20 -47.5v-120q-15 9 -32 14v28h-83v-28q-17 -5 -31 -14v42h-84v-84h42q-9 -14 -14 -31h-28v-83h28q5 -17 14 -31h-120q-28 0 -48 19.5t-20 47.5v240h1zM130 406q-15 0 -25.5 -10.5t-10.5 -25.5v-47h83v83h-47zM94 292
v-84h83v84h-83zM323 323h83v47q0 15 -10.5 25.5t-25.5 10.5h-47v-83zM292 406h-84v-83h84v83zM94 177v-47q0 -15 10.5 -25.5t25.5 -10.5h47v83h-83zM479 135q0 -30 -15.5 -56.5t-42 -42t-57 -15.5t-57 15.5t-42 42t-15.5 57.5t15.5 57t41.5 41.5t57.5 15.5t57.5 -15.5
t41.5 -41.5t15.5 -58zM365 150l-35 34q-3 4 -7 4t-7.5 -3.5t-3.5 -7.5t4 -7l34 -35l-34 -34q-4 -3 -4 -7.5t3.5 -7.5t7.5 -3t7 3l35 35l34 -35q3 -3 7.5 -3t7.5 3t3 7.5t-3 7.5l-35 34l35 35q3 3 3 7t-3 7.5t-7.5 3.5t-7.5 -4z" />
    <glyph glyph-name="ic_fluent_tap_double_20_regular" unicode="&#x67e;" arabic-form="isolated" 
d="M238 425q-35 0 -65.5 -16.5t-50 -45.5t-22 -63.5t10.5 -66.5q-11 -7 -20 -16q-23 48 -13.5 100t48 88t90.5 43t98.5 -18t69.5 -72.5t13 -99.5q-10 9 -23 14q3 30 -6 57.5t-28.5 49.5t-46 34t-55.5 12zM350 279q2 35 -15.5 65.5t-49.5 45t-66.5 8.5t-59.5 -30.5t-32 -59
t8 -66.5q12 3 26 3q-14 25 -10.5 52.5t22 48t45.5 27t52.5 -4t40.5 -34t14 -51.5zM238 350q-16 0 -27 -11t-11 -27v-106q-25 9 -45.5 6.5t-33.5 -12.5q-15 -13 -21 -34q-1 -6 2 -10.5t9 -5.5q44 -5 75 -27q24 -17 39 -41q10 -16 26.5 -25t34.5 -6l38 7q16 3 29 13.5t19 26.5
l24 66q5 14 4 27.5t-8 25.5t-18.5 20t-25.5 11l-73 13v52q0 15 -11 26t-27 11h1zM225 313q0 5 3.5 8.5t9 3.5t9 -3.5t3.5 -8.5v-63q0 -5 3 -8.5t7 -3.5l84 -15q17 -3 26 -18t3 -32l-25 -67q-3 -9 -11 -15.5t-18 -8.5l-37 -6q-10 -2 -19.5 3.5t-16.5 15.5q-16 26 -41 45
q-32 24 -75 33q3 4 7 7q7 6 19 8q23 2 51 -12q6 -3 12 1t6 10v126z" />
    <glyph glyph-name="ic_fluent_tap_single_20_regular" unicode="&#x67e;" arabic-form="final" 
d="M150 288q0 23 12 43.5t33 32.5t44.5 11.5t44 -13t31.5 -34t10 -45.5l25 -4q2 35 -15.5 65.5t-49.5 45t-66.5 8.5t-59.5 -30.5t-32 -59t8 -66.5q12 3 26 3q-11 20 -11 43zM238 350q-16 0 -27 -11t-11 -27v-106q-25 9 -45.5 6.5t-33.5 -12.5q-15 -13 -21 -34q-1 -6 2 -10.5
t9 -5.5q44 -5 75 -27q24 -17 39 -41q10 -16 26.5 -25t34.5 -6l38 7q16 3 29 13.5t19 26.5l24 66q5 14 4 27.5t-8 25.5t-18.5 20t-25.5 11l-73 13v52q0 15 -11 26t-27 11h1zM225 313q0 5 3.5 8.5t9 3.5t9 -3.5t3.5 -8.5v-63q0 -5 3 -8.5t7 -3.5l84 -15q17 -3 26 -18t3 -32
l-25 -67q-3 -9 -11 -15.5t-18 -8.5l-37 -6q-10 -2 -19.5 3.5t-16.5 15.5q-16 26 -41 45q-32 24 -75 33q3 4 7 7q7 6 19 8q23 2 51 -12q6 -3 12 1t6 10v126z" />
    <glyph glyph-name="ic_fluent_text_bullet_list_add_20_regular" unicode="&#x67e;" arabic-form="initial" 
d="M75 363q10 0 17.5 7t7.5 17.5t-7.5 18t-17.5 7.5t-17.5 -7.5t-7.5 -18t7.5 -18t17.5 -7.5v1zM150 388q0 5 3.5 8.5t8.5 3.5h276q5 0 8.5 -3.5t3.5 -9t-3.5 -9t-8.5 -3.5h-275q-6 0 -9.5 3.5t-3.5 8.5v1zM163 300q-6 0 -9.5 -3.5t-3.5 -9t3.5 -9t8.5 -3.5h276q5 0 8.5 3.5
t3.5 9t-3.5 9t-8.5 3.5h-275zM230 175q4 13 10 25h-77q-6 0 -9.5 -3.5t-3.5 -9t3.5 -9t8.5 -3.5h68zM75 163q10 0 17.5 7t7.5 17.5t-7.5 17.5t-17.5 7.5t-17.5 -7t-7.5 -18t7.5 -17.5t17.5 -7zM75 263q10 0 17.5 7t7.5 17.5t-7.5 18t-17.5 7.5t-17.5 -7.5t-7.5 -18t7.5 -18
t17.5 -7.5v1zM475 138q0 -31 -15 -57t-41 -41t-56.5 -15t-56.5 15t-41 41t-15 56.5t15 56.5t41 41t56.5 15t56.5 -15t41 -41t15 -56zM375 188q0 5 -3.5 8.5t-9 3.5t-9 -3.5t-3.5 -8.5v-38h-37q-6 0 -9.5 -3.5t-3.5 -9t3.5 -9t8.5 -3.5h38v-37q0 -6 3.5 -9.5t9 -3.5t9 3.5
t3.5 9.5v37h38q5 0 8.5 3.5t3.5 9t-3.5 9t-8.5 3.5h-38v38z" />
    <glyph glyph-name="ic_fluent_text_bullet_list_square_20_regular" unicode="&#x67e;" arabic-form="medial" 
d="M188 319q0 -8 -5.5 -13.5t-13.5 -5.5t-13.5 5.5t-5.5 13.5t5.5 13.5t13.5 5.5t13.5 -5.5t5.5 -13.5zM169 225q8 0 13.5 5.5t5.5 13.5t-5.5 13.5t-13.5 5.5t-13.5 -5.5t-5.5 -13.5t5.5 -13.5t13.5 -5.5zM188 169q0 -8 -5.5 -13.5t-13.5 -5.5t-13.5 5.5t-5.5 13.5t5.5 13.5
t13.5 5.5t13.5 -5.5t5.5 -13.5zM238 325q-6 0 -9.5 -3.5t-3.5 -9t3.5 -9t8.5 -3.5h101q5 0 8.5 3.5t3.5 9t-3.5 9t-8.5 3.5h-100zM225 238q0 5 3.5 8.5t8.5 3.5h101q5 0 8.5 -3.5t3.5 -9t-3.5 -9t-8.5 -3.5h-100q-6 0 -9.5 3.5t-3.5 8.5v1zM238 175q-6 0 -9.5 -3.5t-3.5 -9
t3.5 -9t8.5 -3.5h101q5 0 8.5 3.5t3.5 9t-3.5 9t-8.5 3.5h-100zM75 375q0 21 14.5 35.5t35.5 14.5h250q21 0 35.5 -14.5t14.5 -35.5v-250q0 -21 -14.5 -35.5t-35.5 -14.5h-250q-21 0 -35.5 14.5t-14.5 35.5v250zM125 400q-10 0 -17.5 -7.5t-7.5 -17.5v-250q0 -10 7.5 -17.5
t17.5 -7.5h250q10 0 17.5 7.5t7.5 17.5v250q0 10 -7.5 17.5t-17.5 7.5h-250z" />
    <glyph glyph-name="ic_fluent_text_grammar_error_20_regular" unicode="&#x680;" arabic-form="isolated" 
d="M63 375q-6 0 -9.5 -3.5t-3.5 -9t3.5 -9t9.5 -3.5h375q5 0 8.5 3.5t3.5 9t-3.5 9t-8.5 3.5h-375zM63 300q-6 0 -9.5 -3.5t-3.5 -9t3.5 -9t9.5 -3.5h375q5 0 8.5 3.5t3.5 9t-3.5 9t-8.5 3.5h-375zM225 138q0 6 1 12h-163q-6 0 -9.5 -3.5t-3.5 -9t3.5 -9t9.5 -3.5h163z
M240 200q7 13 16 25h-193q-6 0 -9.5 -3.5t-3.5 -9t3.5 -9t9.5 -3.5h177zM475 138q0 -31 -15 -57t-41 -41t-56.5 -15t-56.5 15t-41 41t-15 56.5t15 56.5t41 41t56.5 15t56.5 -15t41 -41t15 -56zM363 200q-6 0 -9.5 -3.5t-3.5 -8.5v-50q0 -6 3.5 -9.5t9 -3.5t9 3.5t3.5 9.5v50
q0 5 -3.5 8.5t-8.5 3.5zM363 72q6 0 10.5 4.5t4.5 11t-4.5 11t-11 4.5t-11 -4.5t-4.5 -11t4.5 -11t10.5 -4.5h1z" />
    <glyph glyph-name="ic_fluent_text_number_list_rtl_20_regular" unicode="&#x680;" arabic-form="final" 
d="M425 463q0 4 -2.5 7.5t-7 4.5t-8.5 -1t-6 -6q-3 -6 -8 -12q-9 -12 -24 -20q-6 -3 -6.5 -10.5t5.5 -11t13 -0.5q10 5 19 13v-64q0 -6 3.5 -9.5t9 -3.5t9 3.5t3.5 8.5v101zM366 309q-3 -4 -3 -9t3.5 -8.5t8.5 -3.5t9 3v0q3 3 6 4q8 5 17 5t13.5 -3.5t4.5 -9.5t-4.5 -10
t-16.5 -9l-3 -2q-17 -9 -25 -18q-13 -14 -13 -36q0 -5 3.5 -8.5t8.5 -3.5h63q5 0 8.5 3.5t3.5 9t-3.5 9t-8.5 3.5h-48q1 4 4 7q5 5 18 11l3 2q14 7 21 12q14 12 14 30.5t-14 28.5q-11 9 -28 9v0q-24 0 -41 -16h-1zM394 113q0 5 3.5 8.5t8.5 3.5q11 0 16 5q3 3 3 7.5
t-4.5 8.5t-14.5 4q-12 0 -18 -4l-2 -2v0v0v0q-3 -5 -7.5 -6t-9 1t-6 7t0.5 10l3 4q3 4 7 7q13 8 32 8t31.5 -11t13 -26t-10.5 -26q11 -10 10.5 -25t-13 -26t-31.5 -11t-32 8q-5 4 -9 10l-1 1q-3 5 -1 10t6.5 7.5t9 1t7.5 -6.5l2 -2q6 -4 18 -4q10 0 14.5 4t4.5 8.5t-3 7.5
q-5 5 -16 5q-5 0 -8.5 3.5t-3.5 8.5v1zM88 400q-6 0 -9.5 -3.5t-3.5 -9t3.5 -9t9.5 -3.5h200q5 0 8.5 3.5t3.5 9t-3.5 9t-8.5 3.5h-200zM88 275q-6 0 -9.5 -3.5t-3.5 -9t3.5 -9t9.5 -3.5h200q5 0 8.5 3.5t3.5 9t-3.5 9t-8.5 3.5h-200zM88 150q-6 0 -9.5 -3.5t-3.5 -9t3.5 -9
t9.5 -3.5h200q5 0 8.5 3.5t3.5 9t-3.5 9t-8.5 3.5h-200z" />
    <glyph glyph-name="ic_fluent_tv_arrow_right_20_regular" unicode="&#x6c1;" arabic-form="initial" 
d="M475 363q0 -31 -15 -57t-41 -41t-56.5 -15t-56.5 15t-41 41t-15 56.5t15 56.5t41 41t56.5 15t56.5 -15t41 -41t15 -56zM421 354v0q4 3 4 8v1q0 5 -4 8l-50 50q-3 4 -8.5 4t-9 -3.5t-3.5 -9t4 -8.5l28 -29h-69q-6 0 -9.5 -3.5t-3.5 -9t3.5 -9t8.5 -3.5h70l-28 -29
q-4 -3 -4 -8.5t3.5 -9t9 -3.5t8.5 4zM425 175v65q13 7 25 16v-81q0 -21 -14.5 -35.5t-35.5 -14.5h-300q-21 0 -35.5 14.5t-14.5 35.5v175q0 21 14.5 35.5t35.5 14.5h130q-3 -12 -4 -25h-126q-10 0 -17.5 -7.5t-7.5 -17.5v-175q0 -10 7.5 -17.5t17.5 -7.5h300q10 0 17.5 7.5
t7.5 17.5zM125 88q0 5 3.5 8.5t9.5 3.5h225q5 0 8.5 -3.5t3.5 -9t-3.5 -9t-8.5 -3.5h-225q-6 0 -9.5 3.5t-3.5 9.5z" />
    <glyph glyph-name="ic_fluent_video_360_20_regular" unicode="&#x680;" arabic-form="initial" 
d="M275 275q0 -10 -7.5 -17.5t-17.5 -7.5t-17.5 7.5t-7.5 17.5t7.5 17.5t17.5 7.5t17.5 -7.5t7.5 -17.5zM175 250q0 -10 -7.5 -17.5t-17.5 -7.5t-17.5 7.5t-7.5 17.5t7.5 17.5t17.5 7.5t17.5 -7.5t7.5 -17.5zM375 250q0 -10 -7.5 -17.5t-17.5 -7.5t-17.5 7.5t-7.5 17.5
t7.5 17.5t17.5 7.5t17.5 -7.5t7.5 -17.5zM99 400q-19 3 -34 -10t-15 -32v-216q0 -19 15 -32t34 -9q151 24 302 0q19 -4 34 9t15 32v216q0 19 -15 32t-34 9q-151 -24 -302 0v1zM75 358q0 8 6 13t14 4q155 -25 310 0q8 1 14 -4t6 -13v-216q0 -8 -6 -13t-14 -4l-5 1v49
q0 10 -7.5 17.5t-17.5 7.5h-50v-65l-25 1v64q0 10 -7.5 17.5t-17.5 7.5h-50q-10 0 -17.5 -7.5t-7.5 -17.5v-64l-25 -1v65h-50q-10 0 -17.5 -7.5t-7.5 -17.5v-49l-5 -1q-8 -1 -14 4t-6 13v216z" />
    <glyph glyph-name="ic_fluent_video_360_24_regular" unicode="&#x680;" arabic-form="medial" 
d="M281 260q0 -13 -9 -22t-22 -9t-22 9t-9 22t9 22.5t22 9.5t22 -9.5t9 -22.5zM146 208q13 0 22 9.5t9 22.5t-9 22t-22 9t-22 -9t-9 -22t9 -22.5t22 -9.5zM354 208q13 0 22 9.5t9 22.5t-9 22t-22 9t-22 -9t-9 -22t9 -22.5t22 -9.5zM42 368q0 23 17 37t39 11q72 -10 152 -10
t152 10q22 3 39 -11t17 -37v-236q0 -23 -17 -37t-39 -11q-76 10 -152 10q-80 0 -152 -10q-22 -3 -39 11t-17 37v236zM93 385q-8 1 -14 -4t-6 -13v-236q0 -8 6 -13.5t14 -3.5l11 1v51q0 8 6 14t15 7h52v-65l31 1v64q0 8 6.5 14t14.5 6h42q8 0 14.5 -6t6.5 -15v-63l31 -1v65
h52q9 0 15 -6.5t6 -14.5v-51l11 -1q8 -1 14 4t6 13v236q0 8 -6 13t-14 4q-74 -10 -157 -10t-157 10z" />
    <glyph glyph-name="ic_fluent_video_person_12_regular" unicode="&#x67a;" arabic-form="isolated" 
d="M250 208q26 0 44 18.5t18.5 44.5t-18 44t-44.5 18t-44 -18t-18.5 -44t18 -44.5t44.5 -18.5zM250 250q-9 0 -15 6t-6 14.5t6 15t15 6.5t15 -6.5t6 -15t-6 -14.5t-15 -6zM42 354q0 26 18 44.5t44 18.5h292q26 0 44 -18.5t18 -44.5v-208q0 -26 -18 -44.5t-44 -18.5h-292
q-26 0 -44 18.5t-18 44.5v208zM104 375q-8 0 -14.5 -6t-6.5 -15v-208q0 -9 6.5 -15t14.5 -6h63v21q0 17 12 29t29 12h84q17 0 29 -12t12 -29v-21h63q8 0 14.5 6t6.5 15v208q0 9 -6.5 15t-14.5 6h-292zM292 125v21h-84v-21h84z" />
    <glyph glyph-name="ic_fluent_video_person_16_regular" unicode="&#x67a;" arabic-form="final" 
d="M250 219q26 0 44.5 18t18.5 44t-18.5 44.5t-44.5 18.5t-44 -18.5t-18.5 -44.5t18 -44t44.5 -18zM250 250q-13 0 -22 9t-9 22t9 22.5t22 9.5t22 -9.5t9 -22.5t-9 -22t-22 -9zM31 352q0 22 16 38t39 16h328q23 0 39 -16t16 -38v-204q0 -22 -16 -38t-39 -16h-328
q-23 0 -39 16t-16 38v204zM188 125h125v31h-125v-31zM344 125h70q10 0 16.5 7t6.5 16v204q1 9 -6 16t-17 7h-328q-10 0 -17 -7t-7 -16v-204q1 -9 7.5 -16t16.5 -7h70v31q0 13 9.5 22t22.5 9h125q12 1 21.5 -8.5t9.5 -22.5v-31z" />
    <glyph glyph-name="ic_fluent_video_person_20_regular" unicode="&#x67a;" arabic-form="initial" 
d="M250 225q26 0 44.5 18.5t18.5 44t-18.5 44t-44.5 18.5t-44 -18.5t-18.5 -44t18 -44t44.5 -18.5zM250 250q-16 0 -26.5 11t-10.5 26.5t10.5 26.5t26.5 11t27 -11t11 -26.5t-11 -26.5t-27 -11zM50 363q0 15 11 26t26 11h326q15 0 26 -11t11 -27v-224q0 -16 -11 -27t-27 -11
h-324q-16 0 -27 11t-11 27v225zM175 125h150v38q0 5 -3.5 8.5t-8.5 3.5h-125q-6 0 -9.5 -3.5t-3.5 -8.5v-38zM350 125h63q5 0 8.5 3.5t3.5 9.5v225q0 5 -3.5 8.5t-8.5 3.5h-325q-6 0 -9.5 -3.5t-3.5 -8.5v-225q0 -6 3.5 -9.5t9.5 -3.5h62v38q0 15 11 26t27 11h125
q15 0 26 -11t11 -27v-37z" />
    <glyph glyph-name="ic_fluent_video_person_28_regular" unicode="&#x67a;" arabic-form="medial" 
d="M250 232q17 0 31.5 8.5t23 23t8.5 31t-8.5 31t-23 23t-31.5 8.5q-26 0 -44 -18t-18 -44t18 -44.5t44 -18.5zM250 259q-10 0 -18 4.5t-13 13t-5 18t5 18t13 13t18 4.5q15 0 25.5 -10.5t10.5 -25t-10.5 -25t-25.5 -10.5zM36 375q0 22 15.5 38t37.5 16h322q22 0 37.5 -16
t15.5 -38v-250q0 -22 -15.5 -38t-37.5 -16h-322q-22 0 -37.5 16t-15.5 38v250zM89 402q-11 0 -18.5 -8t-7.5 -19v-250q0 -11 7.5 -19t18.5 -8h58v72q0 14 10.5 24.5t25.5 10.5h134q15 0 25.5 -10.5t10.5 -24.5v-72h58q11 0 18.5 8t7.5 19v250q0 11 -7.5 19t-18.5 8h-322z
M326 98v72q0 3 -2.5 6t-6.5 3h-134q-4 0 -6.5 -3t-2.5 -6v-72h152z" />
    <glyph glyph-name="ic_fluent_video_person_48_regular" unicode="&#x67f;" arabic-form="isolated" 
d="M250 229q17 0 31.5 8.5t23 23t8.5 31t-8.5 31t-23 23t-31.5 8.5q-26 0 -44 -18t-18 -44t18 -44.5t44 -18.5zM250 255q-10 0 -18.5 5t-13 13.5t-4.5 18t4.5 18t13 13.5t18.5 5q15 0 25.5 -10.5t10.5 -25.5t-10.5 -26t-25.5 -11zM42 378q0 16 11.5 27.5t27.5 11.5h338
q16 0 27.5 -11.5t11.5 -27.5v-256q0 -16 -11.5 -27.5t-27.5 -11.5h-338q-16 0 -27.5 11.5t-11.5 27.5v256zM81 391q-6 0 -9.5 -4t-3.5 -9v-256q0 -5 3.5 -9t9.5 -4h65v65q0 15 10 24.5t24 9.5h140q14 0 24 -9.5t10 -24.5v-65h65q6 0 9.5 4t3.5 9v256q0 5 -3.5 9t-9.5 4h-338
zM328 109v65q0 4 -2 6t-6 2h-140q-4 0 -6 -2t-2 -6v-65h156z" />
    <glyph glyph-name="ic_fluent_video_person_call_16_regular" unicode="&#x67f;" arabic-form="final" 
d="M31 352q0 22 16 38t39 16h328q23 0 39 -16t16 -38v-69q-9 6 -19 9l-12 5v55q0 9 -7 16t-17 7h-328q-10 0 -17 -7t-7 -16v-204q1 -9 7.5 -16t16.5 -7h70v31q0 13 9.5 22t22.5 9h125q12 1 21.5 -8.5t9.5 -22.5v-6q-17 0 -32 -9v15h-124v-31h108l-14 -22l-5 -9h-191
q-23 0 -39 16t-16 38v204zM466 234q3 -11 3 -22v-1q0 -41 -29 -95q-7 -11 -13 -21q-33 -50 -70 -62q-9 -3 -18 -1t-16 8l-12 12q-6 6 -7.5 15t2.5 17l16 24q8 12 23 11l2 -1l30 -10q16 13 27 31q9 16 12 32l1 6l-23 21q-5 5 -7 12.5t0 15.5l11 26q3 9 11 13t17 2l15 -4
q9 -3 16 -11t9 -18zM250 219q26 0 44.5 18t18.5 44t-18.5 44.5t-44.5 18.5t-44 -18.5t-18.5 -44.5t18 -44t44.5 -18zM250 250q-13 0 -22 9t-9 22t9 22.5t22 9.5t22 -9.5t9 -22.5t-9 -22t-22 -9z" />
    <glyph glyph-name="ic_fluent_video_person_call_20_regular" unicode="&#x67f;" arabic-form="initial" 
d="M50 363q0 15 11 26t26 11h326q15 0 26 -11t11 -27v-85q-12 6 -25 5v81q0 5 -3.5 8.5t-8.5 3.5h-325q-6 0 -9.5 -3.5t-3.5 -8.5v-225q0 -6 3.5 -9.5t9.5 -3.5h62v38q0 15 11 26t27 11h125q15 0 26 -11t11 -27v-26q-14 -1 -25 -8v35q0 5 -3.5 8.5t-8.5 3.5h-125
q-6 0 -9.5 -3.5t-3.5 -8.5v-38h146q-7 -6 -17 -20l-3 -5h-213q-16 0 -27 11t-11 27v225zM250 225q26 0 44.5 18.5t18.5 44t-18.5 44t-44.5 18.5t-44 -18.5t-18.5 -44t18 -44t44.5 -18.5zM250 250q-16 0 -26.5 11t-10.5 26.5t10.5 26.5t26.5 11t27 -11t11 -26.5t-11 -26.5
t-27 -11zM396 218l10 24q3 8 10.5 12t16.5 3l15 -5q9 -3 15.5 -10.5t9.5 -17.5q10 -47 -27 -115.5t-81 -81.5q-18 -6 -33 6l-12 12q-6 6 -7 15t3 17l15 23q4 6 11 9t14 1l29 -9q16 12 26 30q9 16 12 31l1 6l-22 21q-6 5 -7.5 12.5t0.5 14.5z" />
    <glyph glyph-name="ic_fluent_video_person_call_24_regular" unicode="&#x67f;" arabic-form="medial" 
d="M375 245l11 25q3 8 11 12.5t17 2.5l16 -5q9 -3 16 -11t10 -18q11 -50 -28 -121.5t-85 -86.5q-9 -2 -18.5 -0.5t-16.5 7.5l-12 13q-7 6 -8 15.5t3 17.5l17 25q4 6 11 9t14 1l31 -10q17 13 27 32q10 15 13 33l1 6l-24 22q-5 5 -7 13t0 15l12 28zM411 417q20 0 33.5 -14
t13.5 -33v-83q-8 7 -18 12l-13 4v67q0 6 -4.5 10.5t-11.5 4.5h-322q-7 0 -11.5 -4.5t-4.5 -10.5v-240q0 -6 4.5 -11t11.5 -5l57 1v57q0 14 9.5 24.5t23.5 11.5h139q14 0 24.5 -9.5t11.5 -23.5v-29l-15 5q-8 2 -16 1v20q0 4 -4 5h-137q-4 0 -5 -4v-58h101l-5 -8
q-6 -11 -6 -24h-178q-20 0 -33.5 14t-13.5 33v240q0 19 13.5 33t33.5 14h322zM250 354q17 0 31.5 -8.5t23 -23t8.5 -31t-8.5 -31t-23 -23t-31.5 -8.5q-26 0 -44 18.5t-18 44.5t18 44t44 18zM250 323q-13 0 -22 -9t-9 -22t9 -22.5t22 -9.5t22 9.5t9 22.5t-9 22t-22 9z" />
    <glyph glyph-name="ic_fluent_video_person_star_20_regular" unicode="&#x679;" arabic-form="isolated" 
d="M50 363q0 15 11 26t26 11h326q15 0 26 -11t11 -27v-118q-12 9 -25 16v103q0 5 -3.5 8.5t-8.5 3.5h-325q-6 0 -9.5 -3.5t-3.5 -8.5v-225q0 -6 3.5 -9.5t9.5 -3.5h62v38q0 15 11 26t27 11h52q-6 -12 -10 -25h-42q-6 0 -9.5 -3.5t-3.5 -8.5v-38h51q1 -13 4 -25h-142
q-16 0 -27 11t-11 27v225zM313 288q0 -13 -5 -24q-30 -13 -51 -39q-20 -2 -37 7.5t-25.5 26.5t-6 36.5t15 34t31.5 19t37 -2.5t29 -23t11 -36zM250 250q16 0 27 11t11 26.5t-11 26.5t-27 11t-26.5 -11t-10.5 -26.5t10.5 -26.5t26.5 -11zM475 138q0 -31 -15 -57t-41 -41
t-56.5 -15t-56.5 15t-41 41t-15 56.5t15 56.5t41 41t56.5 15t56.5 -15t41 -41t15 -56zM374 204q-1 4 -4 6.5t-7.5 2.5t-7.5 -2.5t-4 -6.5l-12 -39h-39q-9 0 -12 -9t5 -14l31 -24l-12 -38q-3 -9 4.5 -15t14.5 0l31 24l32 -24q7 -6 14.5 0t4.5 15l-12 38l31 24q8 5 5 14t-12 9
h-39l-12 38v1z" />
    <glyph glyph-name="ic_fluent_video_person_star_off_20_regular" unicode="&#x6c1;" arabic-form="medial" 
d="M71 446q-3 4 -8.5 4t-9 -3.5t-3.5 -9t4 -8.5l29 -29q-14 -2 -23.5 -12.5t-9.5 -24.5v-225q0 -16 11 -27t27 -11h142q-3 12 -4 25h-51v38q0 5 3.5 8.5t8.5 3.5h43q4 13 10 25h-52q-16 0 -27 -11t-11 -27v-37h-62q-6 0 -9.5 3.5t-3.5 9.5v225q0 5 3.5 8.5t9.5 3.5h19
l81 -81q-2 -14 3 -27.5t15 -23.5t23.5 -14.5t27.5 -3.5v1l18 -18q-27 -34 -24.5 -77t33 -73.5t73.5 -32.5t77 26q4 -2 8 -0.5t6 5.5t1.5 8t-3.5 7zM412 70q-2 -5 -7.5 -7t-10.5 2l-31 24l-32 -24q-7 -6 -14.5 0t-4.5 15l12 38l-31 24q-8 5 -5 14t12 9h17zM214 339l18 -18
q11 5 23.5 3.5t21 -10.5t10.5 -21t-4 -23l12 -12q6 3 13 6q8 19 2.5 39t-21.5 33t-37 14t-38 -11zM314 239l36 -36l1 1q2 9 11.5 9t11.5 -9l12 -37l2 -2h37q9 0 12 -9t-5 -14l-12 -9l44 -44q16 32 9.5 67.5t-31.5 60.5t-60.5 31.5t-67.5 -9.5zM153 400l25 -25h235
q5 0 8.5 -3.5t3.5 -8.5v-103q13 -7 25 -16v119q0 15 -11 26t-27 11h-259z" />
    <glyph glyph-name="ic_fluent_video_prohibited_20_regular" unicode="&#x679;" arabic-form="final" 
d="M113 400q-26 0 -44.5 -18.5t-18.5 -44.5v-93q12 9 25 16v78q0 15 11 26t27 11h175q15 0 26 -11t11 -27v-174q0 -16 -11 -27t-27 -11h-13q-1 -13 -4 -25h18q25 0 43.5 18.5t18.5 44.5v25l60 -45q6 -5 13 -5.5t13.5 2.5t10 9t3.5 14v175q0 7 -3.5 13t-10 9t-13.5 2.5
t-13 -4.5l-60 -45v25q0 25 -18.5 43.5t-44.5 18.5h-174zM350 281l75 57v-175l-75 56v62zM138 25q-31 0 -57 15t-41 41t-15 56.5t15 56.5t41 41t56.5 15t56.5 -15t41 -41t15 -56.5t-15 -56.5t-41 -41t-56 -15zM138 225q-25 0 -46.5 -13t-32.5 -35.5t-8.5 -47t16.5 -44.5
l123 123q-23 17 -52 17zM85 67q26 -19 58.5 -17t56 25.5t25.5 56t-17 58.5z" />
    <glyph glyph-name="ic_fluent_video_recording_20_regular" unicode="&#x6be;" arabic-form="isolated" 
d="M113 400q-26 0 -44.5 -18.5t-18.5 -44.5v-70q12 5 25 7v64q0 15 11 26t27 11h175q15 0 26 -11t11 -27v-174q0 -16 -11 -27t-27 -11h-12v-25h13q25 0 43.5 18.5t18.5 43.5v26l60 -45q6 -5 13 -5.5t13.5 2.5t10 9t3.5 14v175q0 7 -3.5 13t-10 9t-13.5 2.5t-13 -4.5l-60 -45
v25q0 25 -18.5 43.5t-44.5 18.5h-174zM350 281l75 57v-175l-75 56v62zM25 188q0 25 18.5 43.5t43.5 18.5h101q25 0 43.5 -18.5t18.5 -44.5v-99q0 -26 -18.5 -44.5t-44.5 -18.5h-99q-26 0 -44.5 18.5t-18.5 44.5v100zM126 187q-6 3 -12 1q-2 -1 -4 -3q-3 -4 -3 -9v-77
q0 -5 3 -9q2 -2 5 -3t7 0l4 1l57 40q3 1 4 4q3 6 0 12q-1 3 -4 5z" />
    <glyph glyph-name="ic_fluent_video_switch_20_regular" unicode="&#x679;" arabic-form="initial" 
d="M100 388q0 25 18.5 43.5t43.5 18.5h126q25 0 43.5 -18.5t18.5 -44.5v-15l47 26q10 5 19 -0.5t9 -15.5v-113q0 -11 -9 -16.5t-19 -0.5l-47 26v-15q0 -26 -18.5 -44.5t-44.5 -18.5h-124q-26 0 -44.5 18.5t-18.5 44.5v125zM350 306l50 -27v92l-50 -27v-38zM163 425
q-16 0 -27 -11t-11 -27v-124q0 -16 11 -27t27 -11h125q15 0 26 11t11 27v125q0 15 -11 26t-27 11h-124zM92 203q-11 -4 -21 -10q-21 -13 -21 -30.5t21 -30.5q15 -10 43 -17q57 -15 136 -15h7l-28 -29q-4 -3 -4 -8.5t3.5 -9t9 -3.5t8.5 4l50 50q4 3 4 8.5t-4 8.5l-50 50
q-3 4 -8.5 4t-9 -3.5t-3.5 -9t4 -8.5l28 -29h-7q-76 0 -129 14q-25 7 -37 15q-9 5 -9 8.5t9 8.5q11 7 30 13q-13 7 -22 19zM348 192q11 10 18 23q10 -3 20 -5q28 -7 43 -17q21 -13 21 -30.5t-21 -30.5q-15 -10 -43 -17q-10 -3 -21 -5q-6 -1 -10.5 2.5t-4.5 9t3 9t7 4.5l19 4
q25 7 37 15q9 5 9 8.5t-9 8.5q-12 8 -37 15q-14 4 -31 6z" />
    <glyph glyph-name="ic_fluent_video_sync_20_regular" unicode="&#x6be;" arabic-form="final" 
d="M113 400q-26 0 -44.5 -18.5t-18.5 -44.5v-93q12 9 25 16v78q0 15 11 26t27 11h175q15 0 26 -11t11 -27v-174q0 -16 -11 -27t-27 -11h-13q-1 -13 -4 -25h18q25 0 43.5 18.5t18.5 44.5v25l60 -45q6 -5 13 -5.5t13.5 2.5t10 9t3.5 14v175q0 7 -3.5 13t-10 9t-13.5 2.5
t-13 -4.5l-60 -45v25q0 25 -18.5 43.5t-44.5 18.5h-174zM350 281l75 57v-175l-75 56v62zM250 138q0 -31 -15 -57t-41 -41t-56.5 -15t-56.5 15t-41 41t-15 56.5t15 56.5t41 41t56.5 15t56.5 -15t41 -41t15 -56zM88 213q-6 0 -9.5 -4t-3.5 -9v-37q0 -6 3.5 -9.5t9.5 -3.5h37
q5 0 9 3.5t4 9t-4 9t-9 3.5h-12q11 6 24 6q21 1 36 -14q4 -4 9 -4t8.5 4t3.5 9t-3 8q-18 18 -43.5 21.5t-47.5 -9.5v4q0 5 -3.5 9t-9.5 4h1zM109 74q16 -6 33.5 -5t32.5 10v-4q0 -5 3.5 -8.5t9 -3.5t9 3.5t3.5 8.5v38q0 5 -3.5 8.5t-8.5 3.5h-38q-5 0 -9 -3.5t-3.5 -9t4 -9
t8.5 -3.5h12q-11 -6 -24 -6q-21 -1 -36 14q-4 4 -9 4t-8.5 -4t-3.5 -9t3 -8q11 -11 25 -17z" />
    <glyph glyph-name="ic_fluent_wifi_warning_20_regular" unicode="&#x679;" arabic-form="medial" 
d="M250 425q-10 0 -17.5 -7.5t-7.5 -17.5v-200q0 -10 7.5 -17.5t17.5 -7.5t17.5 7.5t7.5 17.5v200q0 10 -7.5 17.5t-17.5 7.5zM300 200v20q30 -16 43 -48q2 -4 0.5 -9t-6.5 -7t-9.5 0t-6.5 6q-8 17 -22 29q1 4 1 9zM347 248q-20 21 -47 31v27q31 -10 55.5 -31t39.5 -50
q3 -7 -1 -13t-11 -5.5t-10 6.5q-10 20 -26 35zM403 298q-43 43 -103 57v26q70 -15 121 -66q15 -15 28 -34q4 -6 1 -12.5t-10 -7t-11 5.5q-12 17 -26 31zM81 315q50 50 119 65v-25q-59 -14 -101 -57q-14 -14 -25 -31q-4 -4 -9 -4.5t-9 2t-5 7.5t2 9q13 20 28 34zM137 266
q27 27 63 39v-26q-26 -11 -45 -31q-16 -15 -26 -34q-2 -5 -7 -6.5t-9.5 1t-6 7t0.5 9.5q12 23 30 41zM180 204q9 9 20 15v-19q0 -5 1 -10q-13 -12 -20 -27q-2 -7 -9.5 -8t-12 5t-0.5 13q7 17 21 31zM274 155q6 -6 8.5 -14.5t0.5 -17t-8.5 -14.5t-15 -8.5t-17 0t-14.5 8.5
q-9 10 -9 23t9.5 22.5t23 9.5t22.5 -9z" />
    <glyph glyph-name=".notdef" horiz-adv-x="0" 
 />
    <glyph glyph-name="ic_fluent_access_time_24_regular" unicode="&#xf101;" 
d="M156 318q14 15 37 15q17 0 28.5 -10t16 -24t1 -29t-13.5 -26q-8 -7 -17 -14h-1q-10 -9 -15 -14q-9 -8 -12 -18h44q6 0 11 -4.5t5 -11t-5 -11t-11 -4.5h-63q-6 0 -10.5 4.5t-4.5 10.5q0 33 24 57q6 6 18 15v0q11 9 15 12.5t5.5 10t-0.5 13.5q-4 12 -15 12q-9 0 -14 -5
q-2 -2 -3 -5v0q-2 -9 -11 -10.5t-15 5t-3 15.5v2q4 8 9 14zM276 333q7 0 11.5 -4.5t4.5 -10.5v-58h31v58q0 6 4.5 10.5t11 4.5t11 -4.5t4.5 -10.5v-135q0 -7 -4.5 -11.5t-11 -4.5t-11 4.5t-4.5 11.5v46h-47q-6 0 -11 4.5t-5 11.5v73q0 6 5 10.5t11 4.5zM458 250
q0 57 -28 104.5t-75.5 75.5t-104.5 28t-104.5 -28t-75.5 -75.5t-28 -104.5t28 -104.5t75.5 -75.5t104.5 -28t104.5 28t75.5 75.5t28 104.5zM73 250q0 48 24 88.5t64.5 64.5t88.5 24t88.5 -24t64.5 -64.5t24 -88.5t-24 -88.5t-64.5 -64.5t-88.5 -24t-88.5 24t-64.5 64.5
t-24 88.5z" />
    <glyph glyph-name="ic_fluent_accessibility_16_regular" unicode="&#xf102;" 
d="M250 375q19 0 33 13.5t14 33t-14 33.5t-33 14t-33 -14t-14 -33.5t14 -33t33 -13.5zM78 344q-6 0 -10.5 -4.5t-4.5 -11t4.5 -11.5t10.5 -5h110v-265q-1 -7 4 -11.5t11.5 -4.5t11 4.5t4.5 11.5v78h62v-78q0 -7 4.5 -11.5t11 -4.5t11.5 4.5t5 11.5v266h109q6 0 11 4.5t5 11
t-5 11t-11 4.5h-344z" />
    <glyph glyph-name="ic_fluent_accessibility_20_regular" unicode="&#xf103;" 
d="M250 350q21 0 35.5 14.5t14.5 35.5t-14.5 35.5t-35.5 14.5t-35.5 -14.5t-14.5 -35.5t14.5 -35.5t35.5 -14.5zM88 325q-6 0 -9.5 -3.5t-3.5 -9t3.5 -9t9.5 -3.5h112v-237q0 -6 3.5 -9.5t9 -3.5t9 3.5t3.5 9.5v87h50v-87q0 -6 3.5 -9.5t9 -3.5t9 3.5t3.5 9.5v237h113
q5 0 8.5 3.5t3.5 9t-3.5 9t-8.5 3.5h-325z" />
    <glyph glyph-name="ic_fluent_accessibility_24_regular" unicode="&#xf104;" 
d="M422 354q6 0 10.5 -4t5 -10.5t-3.5 -11t-10 -5.5h-111v-266q-1 -6 -4.5 -10t-9.5 -5h-2q-6 0 -10.5 3.5t-5.5 9.5v112h-62v-110q0 -6 -4.5 -10.5t-10.5 -5t-11 3.5t-5 10v268h-110q-6 0 -10.5 4t-4.5 9v3q0 5 3.5 9.5t9.5 5.5h346zM250 458q17 0 29.5 -12t12.5 -29.5
t-12.5 -29.5t-29.5 -12t-29.5 12t-12.5 29.5t12.5 29.5t29.5 12z" />
    <glyph glyph-name="ic_fluent_accessibility_28_regular" unicode="&#xf105;" 
d="M250 339q17 0 31.5 8.5t23 23t8.5 31.5t-8.5 31.5t-23 22.5t-31.5 8q-26 0 -44 -18t-18 -44t18 -44.5t44 -18.5zM85 313q-6 -1 -10 -4.5t-4 -9t4 -9.5t10 -4h103v-237q0 -5 3.5 -9t9 -4t9.5 4t4 9v94h72v-94q0 -5 4 -9t9.5 -4t9 4t4.5 9v237h102q6 0 10 4t4 9.5t-4 9
t-10 4.5h-330z" />
    <glyph glyph-name="ic_fluent_add_12_regular" unicode="&#xf107;" 
d="M246 416l4 1q8 0 13.5 -5t6.5 -12l1 -4v-125h125q7 0 13 -5t7 -12l1 -4q0 -8 -5 -13.5t-12 -7.5h-4h-125v-125q0 -7 -5 -13t-12 -7l-4 -1q-8 0 -13.5 5t-6.5 12l-1 4v125h-125q-7 0 -13 5t-7 12l-1 4q0 8 5 13.5t12 7.5h4h125v125q0 7 5 13t12 7l4 1z" />
    <glyph glyph-name="ic_fluent_add_16_regular" unicode="&#xf108;" 
d="M247 406h3q6 0 10 -3.5t5 -9.5l1 -127h125q5 0 9.5 -4t5.5 -9v-3q0 -6 -3.5 -10t-9.5 -5l-127 -1v-125q0 -5 -4 -9.5t-9 -5.5h-3q-6 0 -10 3.5t-5 9.5l-1 127h-125q-5 0 -9.5 4t-5.5 9v3q0 6 3.5 10t9.5 5l127 1v125q0 5 4 9.5t9 5.5h3h-3z" />
    <glyph glyph-name="ic_fluent_add_20_regular" unicode="&#xf109;" 
d="M238 88q-1 -6 3 -9.5t9 -3.5t9 3.5t4 9.5v150h150q5 0 8.5 3.5t3.5 8.5t-3.5 9t-8.5 4h-150v150q0 5 -4 8.5t-9 3.5t-9 -3.5t-4 -8.5v-150h-149q-6 0 -9.5 -4t-3.5 -9t3.5 -9t9.5 -4h150v-149z" />
    <glyph glyph-name="ic_fluent_add_24_regular" unicode="&#xf10a;" 
d="M245 438q6 -1 10 -4.5t5 -9.5v-153h152q6 0 10.5 -4.5t5 -10.5t-3.5 -10.5t-10 -5.5h-154v-151q0 -7 -4 -11.5t-10 -4.5t-11 3.5t-6 9.5v154h-151q-6 0 -10.5 4t-5 10t3.5 11t10 6h153v151q0 6 4.5 11t11.5 5z" />
    <glyph glyph-name="ic_fluent_add_28_regular" unicode="&#xf10b;" 
d="M259 268v165q0 6 -4 9.5t-9.5 3.5t-9.5 -3.5t-4 -9.5v-165h-165q-6 0 -9.5 -4t-3.5 -9.5t3.5 -9.5t9.5 -4h165v-165q0 -6 4 -10t9.5 -4t9.5 4t4 10v165h165q6 0 9.5 4t4 9.5t-3.5 9.5t-10 4h-165z" />
    <glyph glyph-name="ic_fluent_add_circle_20_regular" unicode="&#xf10c;" 
d="M250 450q54 0 100 -27t73 -73t27 -100t-27 -100t-73 -73t-100 -27t-100 27t-73 73t-27 100t27 100t73 73t100 27zM250 425q-48 0 -88 -23.5t-63.5 -63.5t-23.5 -88t23.5 -88t63.5 -63.5t88 -23.5t88 23.5t63.5 63.5t23.5 88t-23.5 88t-63.5 63.5t-88 23.5zM250 350
q5 0 9 -3.5t4 -8.5v-75h75q5 0 8.5 -4t3.5 -9t-3.5 -8.5t-8.5 -4.5h-75v-74q0 -6 -4 -9.5t-9 -3.5t-9 3.5t-4 8.5v76h-74q-6 -1 -9.5 3t-3.5 9t3.5 9t8.5 4h76v75q0 5 3.5 8.5t8.5 3.5z" />
    <glyph glyph-name="ic_fluent_add_circle_24_regular" unicode="&#xf10d;" 
d="M250 458q57 0 104.5 -28t75.5 -75.5t28 -104.5t-28 -104.5t-75.5 -75.5t-104.5 -28t-104.5 28t-75.5 75.5t-28 104.5t28 104.5t75.5 75.5t104.5 28zM250 427q-48 0 -88.5 -24t-64.5 -64.5t-24 -88.5t24 -88.5t64.5 -64.5t88.5 -24t88.5 24t64.5 64.5t24 88.5t-24 88.5
t-64.5 64.5t-88.5 24zM250 354q6 0 11 -4.5t5 -10.5v-73h73q6 0 10.5 -5t4.5 -11t-4.5 -11t-10.5 -5h-73v-73q0 -6 -5 -10.5t-11 -4.5t-11 4.5t-5 10.5v73h-73q-6 0 -10.5 5t-4.5 11t4.5 11t10.5 5h73v73q0 6 5 10.5t11 4.5z" />
    <glyph glyph-name="ic_fluent_add_circle_28_regular" unicode="&#xf10e;" 
d="M250 464q58 0 107.5 -28.5t78 -78t28.5 -107.5t-28.5 -107.5t-78 -78t-107.5 -28.5t-107.5 28.5t-78 78t-28.5 107.5t28.5 107.5t78 78t107.5 28.5zM250 438q-51 0 -94 -25.5t-68.5 -68.5t-25 -94t25.5 -94t68 -68t94 -25.5t94 25t68 68.5t25.5 94t-25 94t-68.5 68
t-94 25v1zM250 357q6 0 9.5 -4t3.5 -9v-81h81q7 0 11 -6.5t0 -13t-11 -6.5h-81v-81q0 -5 -3.5 -9t-9.5 -4t-9.5 4t-3.5 9v81h-81q-7 0 -11 6.5t0 13t11 6.5h81v81q0 5 3.5 9t9.5 4z" />
    <glyph glyph-name="ic_fluent_add_square_24_regular" unicode="&#xf8ca;" 
d="M250 354q6 0 11 -4.5t5 -10.5v-73h73q6 0 10.5 -5t4.5 -11t-4.5 -11t-10.5 -5h-73v-73q0 -6 -5 -10.5t-11 -4.5t-11 4.5t-5 10.5v73h-73q-6 0 -10.5 5t-4.5 11t4.5 11t10.5 5h73v73q0 6 5 10.5t11 4.5zM63 370q0 28 19.5 48t47.5 20h240q28 -1 48 -20.5t20 -47.5v-240
q0 -28 -20 -48t-48 -19h-240q-28 0 -48 19.5t-20 47.5v240h1zM130 406q-15 0 -25.5 -10.5t-10.5 -25.5v-240q0 -15 10.5 -25.5t25.5 -10.5h240q15 0 25.5 10.5t10.5 25.5v240q0 15 -10.5 25.5t-25.5 10.5h-240z" />
    <glyph glyph-name="ic_fluent_airplane_20_regular" unicode="&#xf10f;" 
d="M220 293l-18 137q-1 12 6.5 21.5t19.5 10.5h6q11 0 20.5 -6t13.5 -16l63 -144l69 3q19 0 33.5 -12.5t16.5 -31.5v-5q0 -20 -14.5 -34.5t-34.5 -14.5l-70 3l-63 -144q-4 -10 -13.5 -16t-20.5 -7h-3q-13 1 -21.5 10.5t-7.5 22.5l18 137l-54 2l-24 -42q-4 -8 -12 -12.5
t-18 -4.5t-17 7.5t-7 17.5v37h-5q-14 2 -23.5 13t-9.5 25t9.5 25t23.5 13h5v37q0 10 7 17.5t17 7.5t18 -4.5t12 -12.5l24 -42zM234 438l-3 -1q-4 0 -4 -4l21 -164l-96 -4l-32 55q-2 5 -8 5v-61l-24 -1q-6 0 -9.5 -3.5t-3.5 -9.5t3.5 -9.5t9.5 -3.5l25 -1v-61h1q4 1 6 5
l32 55l96 -4l-21 -164q0 -5 4 -5h3q8 1 11 8l70 159l86 -3q10 0 17 7t7 17v1q0 10 -7.5 16.5t-17.5 6.5l-85 -3l-70 159q-3 7 -11 7v1z" />
    <glyph glyph-name="ic_fluent_airplane_24_regular" unicode="&#xf110;" 
d="M197 299l-14 123v1q0 14 9.5 24t23 10t24.5 -6.5t17 -17.5l64 -130l82 2q22 1 38.5 -14.5t17.5 -38.5v-1q0 -22 -16 -38t-39 -16l-82 2l-63 -129q-6 -12 -17.5 -19.5t-25.5 -7.5t-23.5 10t-9.5 24l15 126l-45 1l-6 -15q-4 -12 -14.5 -19.5t-23.5 -7.5t-23 10t-10 23v16
l-3 1q-14 3 -23 14t-9 25t9 25t23 14l3 1v16q0 12 8.5 21.5t21.5 11.5h3q12 0 22 -6.5t15 -17.5l7 -18zM216 425q-2 0 -2 -1l18 -155l-100 -3l-14 37q-3 5 -8 6l-1 -1q-1 0 -1 -1v-42l-28 -5q-7 -2 -7 -9t7 -9l28 -5v-42q0 -1 1 -1q7 0 9 6l13 36l102 -3l-19 -156q0 -2 2 -2
q11 0 15 9l71 147l103 -3q9 0 15.5 6.5t6.5 16.5v1q0 9 -7 15.5t-16 6.5l-103 -3l-71 146q-5 8 -14 8z" />
    <glyph glyph-name="ic_fluent_airplane_take_off_16_regular" unicode="&#xf111;" 
d="M160 326l-24 31q-13 16 -11 35t16 32t34 14q16 0 28 -9l66 -45q12 16 28 30q30 24 62.5 23.5t61.5 -22.5q21 -15 40 -41q13 -18 5.5 -37.5t-27.5 -27.5l-70 -25l-97 -140q-14 -20 -36.5 -20.5t-37.5 16.5t-10 41l10 44l-97 -28q-13 -3 -25.5 -0.5t-22.5 10t-16 19
t-6 24.5v89q0 18 13.5 28t30 7t24.5 -20l19 -39zM160 376l33 -41l32 8q14 4 25 16l-64 44q-6 4 -13 3t-11.5 -6t-5 -11.5t3.5 -12.5zM286 353q-21 -31 -53 -40l-120 -31q-5 -2 -10 0.5t-8 7.5l-24 51q-1 1 -2.5 1.5t-3 0.5t-2 -1l-1.5 -3v-89q1 -12 10 -19t20 -4l97 28
q8 2 16 0t14 -7.5t8.5 -13.5t0.5 -16l-9 -44q-2 -8 3 -13.5t12.5 -5.5t12.5 7l100 144q2 4 7 6l74 27q6 2 8.5 7.5t-1.5 9.5q-36 50 -76 50q-21 0 -42 -17q-17 -13 -31 -36zM47 63q-7 -1 -11.5 -5.5t-4.5 -11t4.5 -11t11.5 -4.5h406q7 0 11.5 4.5t4.5 11t-4.5 11t-11.5 4.5
h-406v1z" />
    <glyph glyph-name="ic_fluent_airplane_take_off_20_regular" unicode="&#xf112;" 
d="M363 400q-40 0 -81 -37q-7 -8 -18 -12l-10 -3l-66 45q-11 7 -23 7q-16 0 -27 -10.5t-12.5 -26t8.5 -27.5l17 -23l-32 -10l-15 30q-6 13 -19 15.5t-24 -5.5t-11 -22v-75q0 -10 5 -19.5t13.5 -15.5t19 -7.5t20.5 1.5l75 26l-7 -37q-4 -18 8 -31t29.5 -13.5t29.5 14.5
l77 100l105 34q16 5 22.5 21.5t-4.5 30.5q-36 50 -80 50zM176 322l-23 29q-3 4 -2.5 9.5t4 9.5t9 5t10.5 -3l50 -34zM300 345q32 30 63 30t60 -39q2 -4 0.5 -8.5t-6.5 -5.5l-108 -35q-4 -1 -6 -4l-80 -104q-6 -7 -15 -3t-7 14l7 36q3 14 -8 23.5t-25 5.5l-75 -26
q-9 -4 -17 2t-8 15v75q0 1 1 2t2 1.5t2 0t2 -2.5l19 -40q2 -4 6.5 -6t8.5 0l156 52q14 4 28 17zM63 75q-6 0 -9.5 -3.5t-3.5 -9t3.5 -9t9.5 -3.5h375q5 0 8.5 3.5t3.5 9t-3.5 9t-8.5 3.5h-375z" />
    <glyph glyph-name="ic_fluent_airplane_take_off_24_regular" unicode="&#xf113;" 
d="M173 325l-16 23q-9 14 -7 30.5t14 27.5t28.5 11t28.5 -10l53 -44q11 12 23 21q26 20 51 22q55 4 101 -48q7 -9 9 -19.5t-1 -20.5q-7 -20 -28 -27l-112 -39l-66 -87q-10 -14 -25.5 -18t-30.5 3t-23 21.5t-4 30.5l5 26l-53 -11q-22 -5 -40 9.5t-17 37.5v76q-1 12 6.5 21.5
t19.5 12.5t23 -2t17 -15l20 -37zM183 366l23 -34l40 8q3 1 5 2l-50 41q-4 3 -8.5 2.5t-8 -3.5t-4 -7.5t2.5 -8.5zM350 375q-15 -1 -34 -16q-14 -11 -28.5 -28t-35.5 -22l-108 -22q-5 -1 -10 1t-7 7l-26 47q-1 2 -4 1.5t-3 -3.5v-76q0 -8 6 -13t14 -3l75 16q9 2 15 -4t4 -14
l-10 -50q-1 -6 1.5 -10.5t7.5 -7t10.5 -1t8.5 5.5l69 92q3 4 7 5l117 41q6 1 8 6.5t-2 9.5q-35 41 -75 38zM78 94q-6 0 -10.5 -4.5t-4.5 -11t4.5 -11t10.5 -4.5h344q6 0 11 4.5t5 11t-5 11t-11 4.5h-344z" />
    <glyph glyph-name="ic_fluent_alert_16_regular" unicode="&#xfb21;" 
d="M250 438q-38 0 -70.5 -19t-51.5 -51.5t-19 -70.5v-75l-30 -76q-3 -7 1.5 -14t13.5 -7h94q0 -26 18 -44t44 -18t44.5 18t18.5 44h93q9 0 13.5 7t1.5 14l-30 76v75q0 38 -19 70.5t-51.5 51t-70.5 19.5zM281 125q0 -13 -9 -22t-22 -9t-22 9t-9 22h62zM141 297q0 30 14.5 55
t39.5 39.5t55 14.5t55 -14.5t39.5 -39.5t14.5 -55v-78q0 -3 1 -6l23 -57h-266l23 57q1 3 1 6v78z" />
    <glyph glyph-name="ic_fluent_alert_20_regular" unicode="&#xf114;" 
d="M250 450q39 0 72 -17.5t54 -48.5t24 -68v-5v-96l23 -55l1 -5l1 -5q0 -9 -5 -15.5t-14 -8.5l-3 -1h-90l-1 -4q-1 -25 -19 -42t-43 -17t-43 17t-19 42v4h-88q-3 0 -7 1l-3 1q-7 3 -11.5 10.5t-3.5 15.5l1 3l24 59v96q2 38 22.5 70t54 50.5t73.5 18.5zM288 125h-75v-4
q1 -13 10.5 -22.5t22.5 -10.5h4q14 0 25 9.5t12 23.5zM250 425q-49 0 -85 -31.5t-40 -78.5v-5v-97l-1 -5l-24 -58h300l-24 58l-1 5v97q-1 31 -18 57.5t-45.5 42t-61.5 15.5z" />
    <glyph glyph-name="ic_fluent_alert_24_regular" unicode="&#xf115;" 
d="M250 458q41 0 76.5 -20t57 -54.5t22.5 -76.5v-90l29 -66q6 -13 -2 -24.5t-22 -11.5h-98q0 -26 -18 -44t-43.5 -19t-44 16.5t-19.5 42.5v4h-99q-14 0 -21.5 11.5t-2.5 24.5l29 66v85q0 43 21 78.5t56.5 56.5t78.5 21zM281 115h-62q0 -13 8.5 -22t21 -9.5t22 7.5t10.5 21v3
zM250 427q-34 0 -62.5 -16.5t-45.5 -45.5t-17 -63v-92l-28 -64h306l-28 64v97q-1 33 -18 60.5t-45.5 43.5t-61.5 16z" />
    <glyph glyph-name="ic_fluent_alert_28_regular" unicode="&#xf116;" 
d="M250 446q40 0 74.5 -19.5t55.5 -53t22 -74.5v-87l25 -65q1 -2 1 -5l1 -3q0 -9 -6 -15.5t-15 -7.5h-95q0 -25 -18 -43.5t-43.5 -19.5t-44 16.5t-19.5 43.5l-1 3h-93q-11 0 -18 9t-4 20l26 67v83q0 30 11.5 58t33 49t49.5 32.5t58 11.5zM286 113v3h-72q0 -14 10 -24.5
t24.5 -11t25.5 9t12 23.5zM250 420q-33 0 -61.5 -16.5t-45.5 -44t-18 -60.5v-89v-4l-25 -63h300l-24 62l-1 3v87q0 24 -9.5 47t-27 41t-40.5 27.5t-48 9.5z" />
    <glyph glyph-name="ic_fluent_alert_off_16_regular" unicode="&#xf117;" 
d="M353 125l89 -89q5 -5 11.5 -5t11 4.5t4.5 11t-5 11.5l-406 406q-5 5 -11.5 5t-11 -4.5t-4.5 -11t5 -11.5l86 -86q-13 -28 -13 -59v-75l-30 -76q-3 -7 1.5 -14t13.5 -7h94q0 -26 18 -44t44 -18t44.5 18t18.5 44h40zM322 156h-205l23 57q1 3 1 6v78q0 18 5 35zM250 94
q-13 0 -22 9t-9 22h62q0 -13 -9 -22t-22 -9zM365 201l-4 12q-2 3 -2 6v78q0 31 -16.5 57.5t-44.5 40.5t-59 11t-56 -23l-22 23q31 25 71.5 30t77.5 -12t59 -51.5t22 -75.5v-75l30 -77z" />
    <glyph glyph-name="ic_fluent_alert_off_20_regular" unicode="&#xf118;" 
d="M100 311q1 30 15 57l-61 61q-4 3 -4 8.5t3.5 9t9 3.5t8.5 -4l375 -375q4 -3 4 -8.5t-3.5 -9t-9 -3.5t-8.5 4l-72 71h-44l-1 -4q-1 -25 -19 -42t-43 -17t-43 17t-19 42v4h-88q-3 0 -7 1l-3 1q-7 3 -11.5 10.5t-3.5 15.5l1 3l24 59v96zM332 150l-199 199q-6 -16 -8 -34v-5
v-97l-1 -5l-24 -58h232zM287 125h-75l1 -4q1 -13 10.5 -22.5t22.5 -10.5h4q14 -1 25 9t12 24l1 4h-1zM376 208l22 -53l21 -21q6 7 6 16v3l-2 7l-23 55v90v11q-3 37 -24 68t-54 48.5t-72 17.5q-30 0 -57.5 -11t-47.5 -31l17 -17q18 16 41 25t47 9q33 0 61.5 -15.5t45.5 -42
t18 -57.5v-97z" />
    <glyph glyph-name="ic_fluent_alert_off_24_regular" unicode="&#xf119;" 
d="M109 369l-63 63q-4 4 -4 10.5t4.5 11t11 4.5t10.5 -4l386 -386q4 -4 4 -10.5t-4.5 -11t-11 -4.5t-10.5 4l-69 69h-50q0 -26 -18 -44t-43.5 -19t-44 16.5t-19.5 42.5v4h-99q-14 0 -21.5 11.5t-2.5 24.5l29 66v85q0 36 15 67zM332 146l-199 199q-8 -21 -8 -43v-92l-28 -64
h235zM281 115h-62q0 -13 8.5 -22t21 -9.5t22 7.5t10.5 21v3zM375 210l15 -33l45 -46q4 10 0 20l-29 66v90q-1 42 -22.5 76.5t-57 54.5t-76.5 20q-29 1 -55.5 -9.5t-47.5 -28.5l22 -23q35 30 81 30q33 0 61.5 -16t45.5 -43.5t18 -60.5v-97z" />
    <glyph glyph-name="ic_fluent_alert_off_28_regular" unicode="&#xf11a;" 
d="M59 460q-6 6 -13.5 4t-9.5 -9.5t4 -13.5l76 -76q-18 -33 -18 -70v-83l-26 -67q-3 -11 4 -20t18 -9h93l1 -3q1 -26 19.5 -43t44 -16t43 19t18.5 43h52l76 -76q4 -4 9.5 -4t9.5 4t4 9.5t-4 9.5zM338 143h-238l24 62l1 5v89q1 24 11 46zM286 113q-1 -14 -12 -23.5t-25.5 -9
t-24.5 11t-10 24.5h72v-3zM149 408l19 -19q28 24 64 29.5t69.5 -10t53.5 -46.5t20 -67v-85l1 -5l15 -39l36 -36q2 4 2 9l-1 3q0 3 -1 5l-25 65v87q-2 44 -26.5 81t-65.5 54.5t-84.5 10t-76.5 -36.5z" />
    <glyph glyph-name="ic_fluent_alert_on_24_regular" unicode="&#xf11b;" 
d="M250 458q41 0 76.5 -20t57 -54.5t22.5 -76.5v-90l29 -66q6 -13 -2 -24.5t-22 -11.5h-98q0 -26 -18 -44t-43.5 -19t-44 16.5t-19.5 42.5v4h-99q-14 0 -21.5 11.5t-2.5 24.5l29 66v85q0 43 21 78.5t56.5 56.5t78.5 21zM281 115h-62q0 -13 8.5 -22t21 -9.5t22 7.5t10.5 21v3
zM250 427q-34 0 -62.5 -16.5t-45.5 -45.5t-17 -63v-92l-28 -64h306l-28 64v97q-1 33 -18 60.5t-45.5 43.5t-61.5 16zM438 328h41q6 0 10.5 -4t5 -10.5t-3.5 -11t-10 -5.5h-43q-7 0 -11.5 4t-5 10.5t3.5 11t10 5.5h3zM21 328h42q6 0 10.5 -4t5 -10.5t-3.5 -11t-10 -5.5h-44
q-6 0 -10.5 4t-5 10.5t3.5 11t10 5.5h2zM471 447q3 -5 3 -10.5t-5 -9.5l-43 -33q-5 -4 -11 -3.5t-10 5.5t-4 11t5 10l43 33q5 4 11.5 3t10.5 -6zM51 450l42 -31q5 -4 6 -10.5t-3 -11.5t-10.5 -6t-11.5 3l-42 31q-5 4 -6 10.5t3 11.5t10.5 6t11.5 -3z" />
    <glyph glyph-name="ic_fluent_alert_snooze_20_regular" unicode="&#xf11c;" 
d="M125 213v86v1q0 29 13 55.5t36.5 44t52.5 23t57 -2.5q5 -1 9.5 1.5t6 7.5t-1 9.5t-7.5 5.5q-34 10 -68.5 3.5t-62.5 -27.5t-44 -52t-16 -67v-86l-23 -55q-5 -13 2.5 -24t20.5 -11h88q-1 -26 17.5 -44t44.5 -18t44.5 18t18.5 44h87q13 0 20.5 11t2.5 24l-23 55v35
q0 5 -3.5 9t-9 4t-9 -4t-3.5 -9v-37q0 -3 1 -5l24 -58h-300l24 58q1 2 1 4v1zM213 125h75q0 -16 -11 -26.5t-27 -10.5t-26.5 10.5t-10.5 26.5zM350 450h88q6 0 10 -6t1 -12l-75 -107h64q4 0 8 -3.5t4 -8t-2.5 -8.5t-7.5 -5h-90q-7 0 -10.5 6t-0.5 12l75 107h-64
q-5 0 -8.5 3.5t-4 8t2.5 8.5t8 5h2zM238 350h62q7 0 10.5 -6.5t0.5 -12.5l-47 -56h36q5 0 8.5 -3.5t4 -8t-2.5 -8.5t-8 -5h-64q-8 0 -11.5 6.5t0.5 12.5l46 56h-35q-5 0 -9 3.5t-4 8t2.5 8.5t7.5 5h3z" />
    <glyph glyph-name="ic_fluent_alert_snooze_24_regular" unicode="&#xf11d;" 
d="M250 427q-33 0 -61.5 -16t-45.5 -45q-18 -31 -18 -69v-87l-27 -64h305l-28 64v45q0 7 4.5 11.5t11 4.5t11 -4.5t4.5 -11.5v-38l29 -66q6 -13 -2 -24.5t-22 -11.5h-98q-1 -26 -19 -44t-44 -18t-44 18t-19 44h-97q-14 0 -22 11.5t-2 24.5l28 66v80q0 47 22 85q21 36 57 56
t77 20q27 0 52 -9q6 -2 8.5 -7.5t0.5 -11.5t-7.5 -9t-11.5 -1q-21 7 -42 7zM250 83q13 0 22 9.5t9 22.5h-62q0 -13 9 -22.5t22 -9.5zM318 354h-52h-2q-7 -1 -10.5 -5.5t-3.5 -11t4.5 -10.5t11.5 -4h21l-35 -50q-4 -8 0.5 -15.5t13.5 -7.5h54q6 1 10 6t3.5 11t-5 10t-10.5 4
h-22l36 50q4 8 -0.5 15.5t-13.5 7.5zM443 458h-73h-2q-6 -1 -10 -5.5t-3.5 -10.5t5 -10.5t10.5 -4.5h44l-58 -92q-4 -8 0.5 -15.5t13.5 -7.5l75 1q6 0 10 5t3.5 11t-5 10.5t-10.5 4.5h-45l59 92q4 8 -1 15t-13 7z" />
    <glyph glyph-name="ic_fluent_alert_urgent_20_regular" unicode="&#xf11e;" 
d="M127 364q31 14 64 10.5t61 -22t43 -48.5l33 -74l41 -40q7 -7 6 -16t-9 -14l-245 -109q-9 -4 -17 0t-9 13l-3 61l-30 69q-11 23 -11.5 49t8.5 49.5t27 42.5t41 29zM288 96q3 -13 -3 -25t-18.5 -17.5t-25.5 -2t-20 15.5zM274 289q-17 38 -56 53.5t-78 -0.5t-56 -55t-2 -78
l35 -78l2 -54l226 101l-38 37zM314 444q3 4 8 5.5t10 -1.5q52 -32 80 -74q35 -52 38 -124q0 -7 -6 -10.5t-12.5 -0.5t-6.5 11q-2 64 -33 110q-26 38 -73 67q-5 2 -6 7.5t1 9.5zM320 385q30 -21 49.5 -49.5t22.5 -60.5v-12t-3.5 -9.5t-8.5 -3.5t-9 3.5t-4 8.5v10
q-3 27 -19 50.5t-42 41.5q-5 3 -6 8.5t2 9.5t8 5t10 -2z" />
    <glyph glyph-name="ic_fluent_alert_urgent_24_regular" unicode="&#xf11f;" 
d="M217 85l74 31q3 -14 -4 -26.5t-20.5 -18t-27 -1.5t-22.5 15zM330 456q66 -35 98 -91t30 -130q0 -7 -4.5 -11.5t-11 -4t-11 5t-4.5 11.5q2 65 -26 113t-86 80q-5 3 -7 9t1 12t9.5 7.5t11.5 -1.5zM140 364q29 13 60.5 10t57.5 -20.5t40 -46.5l29 -65l35 -30q3 -3 6 -7l1 -2
q5 -10 1 -20t-14 -15l-215 -95q-13 -6 -25 2t-12 22v49l-26 58q-10 22 -10.5 46t8 46.5t25.5 40t39 27.5zM107 217l28 -65v-47l201 89l-35 29l-31 70q-16 33 -50 45.5t-68 -2.5t-47 -50t2 -69zM326 381q30 -16 48 -47.5t17 -65.5q0 -9 -8 -13.5t-16 0.5t-7 14q0 25 -13.5 49
t-35.5 36q-6 3 -8 9t1 12t9.5 7.5t12.5 -1.5z" />
    <glyph glyph-name="ic_fluent_animal_dog_20_regular" unicode="&#xf120;" 
d="M269 440q14 10 31 10h36q17 0 32 -9l45 -27q12 -7 12 -21v-30q0 -16 -11 -27t-27 -11h-12v-201q18 -3 30 -13q20 -17 20 -49q0 -5 -3.5 -8.5t-8.5 -3.5h-288q-24 0 -43.5 14t-27.5 37t-0.5 46t26.5 38q4 3 9 2t8 -5t2.5 -9t-4.5 -8q-13 -10 -18 -25.5t0.5 -30.5
t18.5 -24.5t29 -9.5q9 0 14 3.5t8 9t3 12.5v4q1 22 7 43q13 53 47 87q46 46 46 129v37q0 26 19 40zM273 328q-8 -68 -52 -112q-28 -29 -40 -75q-5 -19 -6 -38v-6q-1 -11 -6 -22h154q-5 15 -16 21q-9 4 -19 4h-25q-6 0 -9.5 3.5t-3.5 9t3.5 9t8.5 3.5h26q6 0 12 -1v64
q0 5 3.5 8.5t9 3.5t9 -3.5t3.5 -8.5v-74q19 -14 24 -39h50q-3 11 -10 17q-10 8 -26 8q-6 0 -9.5 3.5t-3.5 9.5v225q0 5 3.5 8.5t8.5 3.5h26q5 0 8.5 3.5t3.5 8.5v31l-45 27q-8 5 -19 5h-36q-9 0 -17 -5.5t-8 -19.5v-37q0 -5 3 -9t9.5 -4t9.5 4t3 9t3.5 8.5t9 3.5t9 -3.5
t3.5 -8.5q0 -13 -7 -23q-11 -15 -31 -15q-7 0 -14 3z" />
    <glyph glyph-name="ic_fluent_animal_dog_24_regular" unicode="&#xf121;" 
d="M276 458h66q17 0 30 -8l58 -36q8 -4 8 -13v-31q0 -20 -14 -33.5t-33 -13.5h-6v-189q32 -4 44 -26q6 -11 8 -26q0 -8 1 -24v-1q-1 -6 -5.5 -10.5t-10.5 -4.5h-300q-27 0 -48.5 16t-29 42t2.5 51t33 39q6 3 12.5 1.5t9.5 -7t1.5 -11.5t-6.5 -10q-15 -8 -21 -23.5t-1.5 -31
t17.5 -25.5t30 -10q8 0 12.5 3.5t7.5 9.5t4 13v4q1 23 5 46q12 56 41 86q23 24 32 70q5 26 5 60v46q0 20 14 33.5t33 13.5zM161 99l16 -1l-1 -8q-2 -9 -5 -17h151q-4 19 -21 27q-5 3 -11.5 3.5t-13.5 0.5h-10q-9 0 -14 7.5t-0.5 16t13.5 7.5l11 1q8 0 16 -1v47q0 7 4.5 11.5
t11 4.5t11 -4.5t4.5 -11.5v-58q26 -17 30 -51h53v6q-1 9 -4 14q-7 11 -32 11q-7 0 -11.5 4.5t-4.5 11.5v219q0 6 4.5 10.5t11.5 4.5h21q6 0 10.5 4.5t4.5 11.5v22l-50 31q-6 4 -14 4h-66q-6 0 -11 -4.5t-5 -11.5v-46q1 -7 5 -11.5t11.5 -4.5t11.5 5t4 11.5t4.5 11t11 4.5
t11 -4.5t4.5 -10.5q0 -20 -12 -33q-13 -15 -35 -15q-10 0 -18 3q-1 -11 -3 -22q-11 -56 -41 -86q-23 -23 -32 -70q-4 -22 -5 -43v-2z" />
    <glyph glyph-name="ic_fluent_app_folder_20_regular" unicode="&#xf122;" 
d="M50 388q0 25 18.5 43.5t43.5 18.5h276q25 0 43.5 -18.5t18.5 -44.5v-274q0 -26 -18.5 -44.5t-44.5 -18.5h-274q-26 0 -44.5 18.5t-18.5 43.5v276zM113 425q-16 0 -27 -11t-11 -27v-274q0 -16 11 -27t27 -11h275q15 0 26 11t11 27v275q0 15 -11 26t-27 11h-274zM125 350
q0 10 7.5 17.5t17.5 7.5h50q10 0 17.5 -7.5t7.5 -17.5v-50q0 -10 -7.5 -17.5t-17.5 -7.5h-50q-10 0 -17.5 7.5t-7.5 17.5v50zM200 350h-50v-50h50v50zM125 200q0 10 7.5 17.5t17.5 7.5h50q10 0 17.5 -7.5t7.5 -17.5v-50q0 -10 -7.5 -17.5t-17.5 -7.5h-50q-10 0 -17.5 7.5
t-7.5 17.5v50zM200 200h-50v-50h50v50zM275 350q0 10 7.5 17.5t17.5 7.5h50q10 0 17.5 -7.5t7.5 -17.5v-50q0 -10 -7.5 -17.5t-17.5 -7.5h-50q-10 0 -17.5 7.5t-7.5 17.5v50zM350 350h-50v-50h50v50zM275 200q0 10 7.5 17.5t17.5 7.5h50q10 0 17.5 -7.5t7.5 -17.5v-50
q0 -10 -7.5 -17.5t-17.5 -7.5h-50q-10 0 -17.5 7.5t-7.5 17.5v50zM350 200h-50v-50h50v50z" />
    <glyph glyph-name="ic_fluent_app_folder_24_regular" unicode="&#xf123;" 
d="M380 438q24 0 41 -17t17 -41v-260q0 -24 -17 -40.5t-41 -17.5h-260q-24 0 -41 17t-16 41v260q0 24 16.5 41t40.5 16h260v1zM380 406h-260q-11 0 -18.5 -7.5t-7.5 -18.5v-260q0 -11 7.5 -18.5t18.5 -7.5h260q11 0 18.5 7.5t7.5 18.5v260q0 11 -7.5 18.5t-18.5 7.5z
M203 240q15 0 26 -11t11 -26v-42q0 -15 -11 -25.5t-26 -10.5h-41q-16 0 -26.5 10.5t-10.5 25.5v42q0 15 10.5 26t25.5 11h42zM339 240q15 0 25.5 -11t10.5 -26v-42q0 -15 -10.5 -25.5t-25.5 -10.5h-42q-15 0 -26 10.5t-11 25.5v42q0 15 11 26t26 11h42zM203 208h-41
q-3 0 -4.5 -1.5t-1.5 -3.5v-42q0 -2 1.5 -3.5t4.5 -1.5h41q2 0 3.5 1.5t1.5 3.5v42q0 2 -1.5 3.5t-3.5 1.5zM339 208h-42q-2 0 -3.5 -1.5t-1.5 -3.5v-42q0 -2 1.5 -3.5t3.5 -1.5h42q2 0 3.5 1.5t1.5 3.5v42q0 2 -1.5 3.5t-3.5 1.5zM203 375q15 0 26 -10.5t11 -25.5v-42
q0 -15 -11 -26t-26 -11h-42q-15 0 -25.5 11t-10.5 26v42q0 15 10.5 25.5t25.5 10.5h42zM339 375q15 0 25.5 -10.5t10.5 -25.5v-42q0 -15 -10.5 -26t-25.5 -11h-42q-15 0 -26 11t-11 26v42q0 15 11 25.5t26 10.5h42zM203 344h-42q-2 0 -3.5 -1.5t-1.5 -3.5v-42q0 -2 1.5 -3.5
t3.5 -1.5h42q2 0 3.5 1.5t1.5 3.5v42q0 2 -1.5 3.5t-3.5 1.5zM339 344h-42q-2 0 -3.5 -1.5t-1.5 -3.5v-42q0 -2 1.5 -3.5t3.5 -1.5h42q2 0 3.5 1.5t1.5 3.5v42q0 2 -1.5 3.5t-3.5 1.5z" />
    <glyph glyph-name="ic_fluent_app_generic_24_regular" unicode="&#xf124;" 
d="M370 438l4 -1q25 -1 43.5 -19.5t19.5 -43.5v-248q-1 -27 -20.5 -45.5t-46.5 -17.5h-240q-27 -1 -46.5 17.5t-20.5 45.5v244q-1 27 17.5 46.5t45.5 20.5zM406 333h-312v-203q0 -14 9.5 -24.5t23.5 -11.5h246q13 1 22.5 10.5t10.5 22.5v206zM214 302q5 0 9.5 -4t5.5 -9
v-148q0 -6 -4 -10.5t-9 -5.5h-75q-6 0 -10.5 4t-5.5 9v148q0 6 4 10.5t10 5.5h75zM198 271h-42v-115h42v115zM339 240q6 0 10.5 -4.5t5 -10.5t-3.5 -11t-10 -6h-75q-6 0 -10.5 4.5t-5 10.5t3.5 11t10 5zM359 302q7 0 11.5 -4t4.5 -10.5t-3.5 -11t-10.5 -5.5h-95
q-6 0 -10.5 4t-5 10.5t3.5 11t10 5.5h95z" />
    <glyph glyph-name="ic_fluent_app_recent_24_regular" unicode="&#xf125;" 
d="M328 458q19 0 32.5 -12.5t14.5 -30.5v-19h36q19 0 32.5 -12.5t14.5 -31.5v-201q0 -18 -12.5 -31.5t-30.5 -15.5h-40v-15q0 -19 -12.5 -32.5t-31.5 -14.5h-159q-19 0 -32.5 12.5t-14.5 30.5v19h-36q-19 0 -32.5 12.5t-14.5 31.5v201q0 18 12.5 31.5t30.5 15.5h40v15
q0 19 12.5 32.5t31.5 14.5h159zM328 427h-156q-6 0 -10.5 -4t-5.5 -9v-325q0 -6 4 -10.5t10 -5.5h158q6 0 10.5 4t5.5 9v325q0 6 -4 10.5t-10 5.5h-2zM125 365h-36q-6 0 -10.5 -4t-5.5 -10v-200q0 -6 4 -10.5t9 -4.5l39 -1v230zM411 365h-36v-230h36q6 0 10.5 4t5.5 10v200
q0 6 -4.5 11t-11.5 5z" />
    <glyph glyph-name="ic_fluent_app_span_16_regular" unicode="&#xf126;" 
d="M125 406q0 26 18.5 44.5t44.5 18.5h125q25 0 43.5 -18.5t18.5 -44.5v-65q-14 -5 -22.5 -17t-8.5 -27v109q0 13 -9.5 22.5t-22.5 9.5h-124q-13 0 -22.5 -9.5t-9.5 -22.5v-109q0 15 -8.5 27t-22.5 17v65zM344 172v-78q0 -13 -9.5 -22t-22.5 -9h-124q-13 0 -22.5 9t-9.5 22
v78q0 -15 -8.5 -27t-22.5 -17v-34q0 -26 18.5 -44.5t44.5 -18.5h125q25 0 43.5 18.5t18.5 44.5v34q-14 5 -22.5 17t-8.5 27zM36 245l62 63q7 6 15.5 4t11 -11t-4.5 -15l-35 -36h87q6 0 11 -4.5t5 -11t-5 -11t-11 -4.5h-87l35 -36q7 -6 4.5 -15t-11 -11.5t-15.5 4.5l-62 62
q-5 5 -5 11v0q0 7 5 11v0zM402 161l62 62v0q5 5 5 11v0q0 7 -5 11l-62 63q-5 4 -11.5 4t-11 -4.5t-4.5 -11t5 -10.5l35 -36h-87q-6 0 -11 -4.5t-4.5 -11t5 -11t10.5 -4.5h87l-35 -36q-5 -5 -5 -11.5t4.5 -11t11 -4.5t11.5 5z" />
    <glyph glyph-name="ic_fluent_app_span_20_regular" unicode="&#xf127;" 
d="M125 400q0 21 14.5 35.5t35.5 14.5h150q21 0 35.5 -14.5t14.5 -35.5v-77q-13 4 -25 0v77q0 10 -7.5 17.5t-17.5 7.5h-150q-10 0 -17.5 -7.5t-7.5 -17.5v-77q-13 4 -25 0v77zM125 152q13 -4 25 0v-52q0 -10 7.5 -17.5t17.5 -7.5h150q10 0 17.5 7.5t7.5 17.5v52q12 -4 25 0
v-52q0 -21 -14.5 -35.5t-35.5 -14.5h-150q-21 0 -35.5 14.5t-14.5 35.5v52zM79 246l50 50q3 4 8.5 4t9 -3.5t3.5 -9t-4 -8.5l-28 -29h70q5 0 8.5 -3.5t3.5 -9t-3.5 -9t-8.5 -3.5h-70l28 -29q4 -3 4 -8.5t-3.5 -9t-9 -3.5t-8.5 4l-50 50q-4 3 -4 8v1q0 5 4 8v0zM371 179
l50 50v0q4 3 4 8v1q0 5 -4 8l-50 50q-3 4 -8.5 4t-9 -3.5t-3.5 -9t4 -8.5l28 -29h-69q-6 0 -9.5 -3.5t-3.5 -9t3.5 -9t8.5 -3.5h70l-28 -29q-4 -3 -4 -8.5t3.5 -9t9 -3.5t8.5 4z" />
    <glyph glyph-name="ic_fluent_app_span_24_regular" unicode="&#xf128;" 
d="M344 172v0q13 -13 31 -10v-73q0 -19 -12.5 -32.5t-31.5 -14.5h-159q-19 0 -32.5 12.5t-14.5 30.5v77q16 -2 28 8l3 2v-83q0 -6 4 -10.5t10 -5.5h158q6 0 10.5 4t5.5 9v86zM141 313q4 -4 4.5 -10t-2.5 -10l-27 -27h79q5 0 9 -4.5t4 -11t-3 -11t-8 -4.5l-81 -1l25 -25
q4 -4 4.5 -10t-2.5 -10l-2 -2q-4 -4 -9.5 -4.5t-10.5 2.5l-51 51q-8 5 -8 14t8 14l49 49q5 5 11.5 5t10.5 -5zM359 313q4 4 9.5 4.5t10.5 -2.5l51 -51q8 -5 8 -13.5t-6 -13.5l-2 -1l-51 -51q-4 -3 -9 -3t-9 3l-4 4q-3 4 -3 9t3 9l27 27l-81 1q-5 0 -8 4.5t-3 10.5t3 10.5
t8 5.5h81l-27 27q-3 5 -2.5 10.5t4.5 9.5zM328 458q19 0 32.5 -12.5t14.5 -30.5v-77q-16 3 -28 -8l-3 -2v83q0 6 -4 10.5t-10 5.5h-158q-6 0 -10.5 -4t-5.5 -9v-86v0q-13 13 -31 10v73q0 19 12.5 32.5t31.5 14.5h159z" />
    <glyph glyph-name="ic_fluent_app_span_28_regular" unicode="&#xf129;" 
d="M156 464q-20 0 -34.5 -14t-14.5 -35v-87q14 5 27 0v87q0 9 6.5 16t15.5 7h188q9 0 15.5 -7t6.5 -16v-87q13 5 27 0v87q0 21 -14.5 35t-34.5 14h-188zM389 300q-5 5 -13 3.5t-10 -9.5t4 -13l31 -31h-84q-6 0 -9.5 -4t-3.5 -9.5t3.5 -9.5t9.5 -4h84l-31 -30q-4 -4 -4 -10
t4 -9.5t9.5 -3.5t9.5 4l54 53q3 4 3 9.5t-3 9.5zM366 145q13 -5 27 0v-60q0 -21 -14.5 -35t-34.5 -14h-188q-20 0 -34.5 14t-14.5 35v60q14 -5 27 0v-60q0 -9 6.5 -15.5t15.5 -6.5h188q9 -1 15.5 6t6.5 16v60zM99 223h84q6 0 9.5 4t3.5 9.5t-3.5 9.5t-9.5 4h-84l31 31
q6 5 4 13t-10 9.5t-13 -3.5l-53 -54q-4 -4 -4 -9.5t3 -9.5l54 -53q4 -4 9.5 -4t9 4t4 9.5t-3.5 9.5z" />
    <glyph glyph-name="ic_fluent_app_store_24_regular" unicode="&#xf12a;" 
d="M370 438q28 -1 48 -20.5t20 -47.5v-240q0 -28 -20 -48t-48 -19h-240q-28 0 -48 19.5t-20 47.5v240q1 28 20.5 48t47.5 20h240zM370 406h-240q-15 0 -25.5 -10.5t-10.5 -25.5v-240q0 -15 10.5 -25.5t25.5 -10.5h240q15 0 25.5 10.5t10.5 25.5v240q0 15 -10.5 25.5
t-25.5 10.5zM195 182l-10 -18q-4 -5 -9.5 -7t-11 1t-8 8.5t0.5 11.5l2 4h36zM277 291l36 -62h36q6 0 10.5 -4t4.5 -9l1 -3q0 -5 -4 -9.5t-10 -5.5h-20l10 -18q3 -6 2 -12t-6.5 -9.5t-11.5 -2.5t-10 6l-56 98zM276 352q5 -3 7 -8.5t0 -10.5l-60 -104h36l18 -31h-126
q-6 0 -10.5 4t-5 10t3.5 11t10 6h37l46 78l-14 24q-3 5 -2 10.5t6 9.5l2 1q5 3 10.5 2t9.5 -6l6 -10l5 8q3 6 9.5 7.5t11.5 -1.5z" />
    </font>
</defs>
</svg>
